<svg width="56" height="56" viewBox="0 0 56 56" fill="none" xmlns="http://www.w3.org/2000/svg">
<rect width="56" height="56" rx="10" fill="#FFC954"/>
<g clip-path="url(#clip0_1_254)">
<path d="M41.514 18.8381L29.6633 17.8736L14.485 18.8381V42.5252C14.485 42.938 14.8196 43.2727 15.2325 43.2727H40.7664C41.1793 43.2727 41.5141 42.9379 41.5141 42.525L41.514 18.8381Z" fill="#F6F9F9"/>
<path d="M41.514 18.8381L39.0556 17.6089V36.3447C39.0556 39.492 36.5042 42.0435 33.3569 42.0435H14.485V42.5252C14.485 42.9381 14.8196 43.2727 15.2325 43.2727H40.7664C41.1793 43.2727 41.514 42.9379 41.514 42.525V18.8381Z" fill="#E7ECF1"/>
<path d="M40.7664 14.4708H15.2326C14.8197 14.4708 14.485 14.8055 14.485 15.2184V18.8381H41.514V15.2184C41.514 14.8055 41.1793 14.4708 40.7664 14.4708Z" fill="#61A2F9"/>
<path d="M40.766 14.4708H39.0552V18.8381H41.5135V15.2184C41.5135 14.8055 41.1789 14.4708 40.766 14.4708Z" fill="#5490F9"/>
<path d="M18.3049 16.8417H17.8849C17.4735 16.8417 17.14 16.5082 17.14 16.0969V13.4721C17.14 13.0608 17.4735 12.7273 17.8849 12.7273H18.3049C18.7162 12.7273 19.0497 13.0608 19.0497 13.4721V16.0968C19.0497 16.5082 18.7163 16.8417 18.3049 16.8417Z" fill="#DAE4EA"/>
<path d="M23.257 16.8417H22.837C22.4257 16.8417 22.0922 16.5082 22.0922 16.0969V13.4721C22.0922 13.0608 22.4257 12.7273 22.837 12.7273H23.257C23.6684 12.7273 24.0019 13.0608 24.0019 13.4721V16.0968C24.0019 16.5082 23.6684 16.8417 23.257 16.8417Z" fill="#DAE4EA"/>
<path d="M28.2084 16.8417H27.7884C27.3771 16.8417 27.0436 16.5082 27.0436 16.0969V13.4721C27.0436 13.0608 27.3771 12.7273 27.7884 12.7273H28.2084C28.6198 12.7273 28.9533 13.0608 28.9533 13.4721V16.0968C28.9533 16.5082 28.6198 16.8417 28.2084 16.8417Z" fill="#DAE4EA"/>
<path d="M33.1606 16.8417H32.7406C32.3293 16.8417 31.9958 16.5082 31.9958 16.0969V13.4721C31.9958 13.0608 32.3292 12.7273 32.7406 12.7273H33.1606C33.572 12.7273 33.9055 13.0608 33.9055 13.4721V16.0968C33.9055 16.5082 33.572 16.8417 33.1606 16.8417Z" fill="#DAE4EA"/>
<path d="M38.1135 16.8417H37.6935C37.2822 16.8417 36.9487 16.5082 36.9487 16.0969V13.4721C36.9487 13.0608 37.2821 12.7273 37.6935 12.7273H38.1135C38.5249 12.7273 38.8584 13.0608 38.8584 13.4721V16.0968C38.8584 16.5082 38.5249 16.8417 38.1135 16.8417Z" fill="#DAE4EA"/>
<path d="M35.7295 27.2658L33.7945 25.3308C33.6386 25.1749 33.3859 25.1749 33.23 25.3308L26.5482 32.0127C26.5264 32.0344 26.4913 32.0344 26.4696 32.0127L22.7809 28.324C22.625 28.1681 22.3724 28.1681 22.2165 28.324L20.27 30.2705C20.1141 30.4264 20.1141 30.679 20.27 30.8349L26.2151 36.78C26.371 36.9359 26.6237 36.9359 26.7796 36.78L35.7295 27.8301C35.8853 27.6743 35.8853 27.4217 35.7295 27.2658Z" fill="#80E29D"/>
</g>
<defs>
<clipPath id="clip0_1_254">
<rect width="30.5455" height="30.5455" fill="white" transform="translate(12.7273 12.7273)"/>
</clipPath>
</defs>
</svg>
