<svg width="56" height="56" viewBox="0 0 56 56" fill="none" xmlns="http://www.w3.org/2000/svg">
<rect width="56" height="56" rx="10" fill="#7AD6E1"/>
<g clip-path="url(#clip0_1_273)">
<path d="M40.762 18.3144L28.4704 17.5024L12.7273 18.3144V38.2637C12.7273 38.6114 13.0744 38.8933 13.5025 38.8933H39.9863C40.4144 38.8933 40.762 38.6114 40.762 38.2637V18.3144Z" fill="#F6F9F9"/>
<path d="M40.7625 18.3145L38.6894 17.2794V33.0589C38.6894 35.7098 36.5379 37.8583 33.8843 37.8583H12.7394V38.2643C12.7394 38.612 13.0216 38.8939 13.3697 38.8939H40.1322C40.4803 38.8939 40.7625 38.612 40.7625 38.2643V18.3145Z" fill="#E7ECF1"/>
<path d="M40.1317 14.6365H13.3692C13.0211 14.6365 12.7389 14.9183 12.7389 15.266L12.7273 18.3144H40.762V15.266C40.762 14.9183 40.4798 14.6365 40.1317 14.6365Z" fill="#61A2F9"/>
<path d="M40.1317 14.6365H38.6889V18.3144H40.762V15.266C40.762 14.9183 40.4798 14.6365 40.1317 14.6365Z" fill="#5490F9"/>
<path d="M15.0161 31.2354V30.325C15.0161 30.2129 15.1675 30.1215 15.3542 30.1215H34.4763C34.6629 30.1215 34.8143 30.2124 34.8143 30.325V31.2354C34.8143 31.3479 34.6629 31.4389 34.4763 31.4389H15.3542C15.1675 31.4389 15.0161 31.3479 15.0161 31.2354Z" fill="#DAE4EA"/>
<path d="M15.0161 33.8698V32.9594C15.0161 32.8468 15.1373 32.7559 15.2873 32.7559H30.6254C30.7753 32.7559 30.8965 32.8468 30.8965 32.9594V33.8698C30.8965 33.9818 30.7753 34.0733 30.6254 34.0733H15.2873C15.1379 34.0733 15.0161 33.9823 15.0161 33.8698Z" fill="#DAE4EA"/>
<path d="M15.0161 27.0917V22.0852C15.0161 21.4677 15.5604 20.9673 16.2325 20.9673H23.0107C23.6822 20.9673 24.227 21.4677 24.227 22.0852V27.0917C24.227 27.7092 23.6827 28.2096 23.0107 28.2096H16.2325C15.5609 28.2096 15.0161 27.7092 15.0161 27.0917Z" fill="#DAE4EA"/>
<path d="M25.6033 27.0917V22.0852C25.6033 21.4677 26.1476 20.9673 26.8197 20.9673H33.5979C34.2694 20.9673 34.8143 21.4677 34.8143 22.0852V27.0917C34.8143 27.7092 34.2699 28.2096 33.5979 28.2096H26.8197C26.1481 28.2096 25.6033 27.7092 25.6033 27.0917Z" fill="#DAE4EA"/>
<path d="M43.0162 35.0552L42.1806 34.8738C42.1082 34.6517 42.0182 34.4346 41.9115 34.2261L42.3743 33.5076C42.4568 33.379 42.4387 33.2107 42.3306 33.1026L41.0287 31.8023C40.9205 31.6943 40.752 31.6762 40.6232 31.7586L39.9038 32.2208C39.6946 32.1148 39.4777 32.0249 39.2554 31.952L39.0738 31.1174C39.0416 30.9682 38.9093 30.8617 38.7564 30.8617H36.9157C36.7628 30.8617 36.6305 30.9682 36.5983 31.1174L36.4167 31.952C36.1943 32.0244 35.977 32.1143 35.7682 32.2208L35.0489 31.7586C34.9201 31.6762 34.7515 31.6943 34.6434 31.8023L33.3415 33.1026C33.2333 33.2107 33.2152 33.379 33.2977 33.5076L33.7605 34.2261C33.6544 34.4351 33.5643 34.6517 33.4914 34.8738L32.6558 35.0552C32.5064 35.0878 32.4003 35.2195 32.4003 35.3722V37.2107C32.4003 37.3634 32.5069 37.4951 32.6558 37.5277L33.4914 37.7091C33.5638 37.9312 33.6539 38.1482 33.7605 38.3568L33.2977 39.0753C33.2152 39.2039 33.2333 39.3722 33.3415 39.4803L34.6434 40.7806C34.7515 40.8886 34.9201 40.9067 35.0489 40.8243L35.7682 40.3621C35.9775 40.4681 36.1943 40.558 36.4167 40.6309L36.5983 41.4654C36.6305 41.6147 36.7628 41.7212 36.9157 41.7212H38.7564C38.9093 41.7212 39.0416 41.6147 39.0738 41.4654L39.2554 40.6309C39.4777 40.5585 39.6951 40.4686 39.9038 40.3621L40.6232 40.8243C40.752 40.9067 40.9205 40.8886 41.0287 40.7806L42.3306 39.4803C42.4387 39.3722 42.4568 39.2039 42.3743 39.0753L41.9115 38.3568C42.0177 38.1477 42.1077 37.9312 42.1806 37.7091L43.0162 37.5277C43.1656 37.4951 43.2723 37.3634 43.2723 37.2107V35.3722C43.2723 35.22 43.1656 35.0878 43.0162 35.0552ZM39.7856 36.2917C39.7856 37.3649 38.9113 38.2387 37.8363 38.2387C36.7618 38.2387 35.8869 37.3654 35.8869 36.2917C35.8869 35.218 36.7612 34.3447 37.8363 34.3447C38.9108 34.3452 39.7856 35.2185 39.7856 36.2917Z" fill="#C8D2D8"/>
</g>
<defs>
<clipPath id="clip0_1_273">
<rect width="30.5455" height="27.0846" fill="white" transform="translate(12.7273 14.6365)"/>
</clipPath>
</defs>
</svg>
