<svg width="56" height="56" viewBox="0 0 56 56" fill="none" xmlns="http://www.w3.org/2000/svg">
<rect width="56" height="56" rx="10" fill="#FA855C"/>
<g clip-path="url(#clip0_1_291)">
<path d="M23.0574 21.9237L22.0796 20.2301L21.1006 20.1573L20.7398 21.0037L21.7183 22.6985C22.4212 22.8275 22.9434 22.555 23.0574 21.9237Z" fill="#B9C1CB"/>
<path d="M32.939 21.9237L33.9168 20.2301L34.8958 20.1573L35.2567 21.0037L34.2781 22.6985C33.5752 22.8275 33.053 22.555 32.939 21.9237Z" fill="#B9C1CB"/>
<path d="M28.7935 19.2826C30.0207 18.931 30.8777 17.7927 30.8777 16.5146C30.8777 14.927 29.5862 13.6355 27.9986 13.6355C26.4111 13.6355 25.1196 14.9271 25.1196 16.5146C25.1196 17.7927 25.9766 18.931 27.2038 19.2826L27.3283 20.2425C25.5162 19.9185 24.2114 18.3229 24.2114 16.5145C24.2114 14.4263 25.9103 12.7273 27.9986 12.7273C30.0869 12.7273 31.7859 14.4263 31.7859 16.5145C31.7859 18.3203 30.485 19.9138 28.677 20.2411L28.7935 19.2826Z" fill="#DAE4EA"/>
<path d="M27.9985 21.0315C28.3083 21.0315 28.615 21.046 28.9184 21.0744V17.2939H27.0786V21.0744C27.382 21.046 27.6887 21.0315 27.9985 21.0315Z" fill="#B9C1CB"/>
<path d="M27.9984 43.2728C34.2087 43.2728 39.2432 38.2383 39.2432 32.028C39.2432 25.8177 34.2087 20.7832 27.9984 20.7832C21.7881 20.7832 16.7536 25.8177 16.7536 32.028C16.7536 38.2383 21.7881 43.2728 27.9984 43.2728Z" fill="#DAE4EA"/>
<path d="M29.3608 15.4811H26.6352C26.4999 15.4811 26.3903 15.5907 26.3903 15.7259V17.3032C26.3903 17.4384 26.4999 17.548 26.6352 17.548H29.3608C29.496 17.548 29.6056 17.4384 29.6056 17.3032V15.7259C29.6056 15.5907 29.496 15.4811 29.3608 15.4811Z" fill="#DAE4EA"/>
<path d="M22.2193 20.1496L20.6006 21.0841C20.5397 21.1193 20.4619 21.0985 20.4267 21.0376L19.2173 18.9427C19.1821 18.8818 19.203 18.804 19.2639 18.7688L20.8825 17.8343C20.9434 17.7992 21.0212 17.82 21.0564 17.8809L22.2658 19.9757C22.301 20.0366 22.2802 20.1144 22.2193 20.1496Z" fill="#DAE4EA"/>
<path d="M33.7769 20.1496L35.3955 21.0841C35.4564 21.1193 35.5343 21.0985 35.5694 21.0376L36.7789 18.9427C36.814 18.8818 36.7932 18.804 36.7323 18.7688L35.1137 17.8343C35.0528 17.7992 34.9749 17.82 34.9398 17.8809L33.7303 19.9757C33.6951 20.0366 33.716 20.1144 33.7769 20.1496Z" fill="#DAE4EA"/>
<path d="M27.998 41.2284C33.0793 41.2284 37.1984 37.1092 37.1984 32.028C37.1984 26.9467 33.0793 22.8275 27.998 22.8275C22.9167 22.8275 18.7975 26.9467 18.7975 32.028C18.7975 37.1092 22.9167 41.2284 27.998 41.2284Z" fill="#F6F9F9"/>
<path d="M30.8528 23.2789C33.2257 24.9429 34.7769 27.6988 34.7769 30.817C34.7769 35.8983 30.6578 40.0175 25.5765 40.0175C24.5801 40.0175 23.6206 39.8591 22.722 39.566C24.2158 40.6136 26.0353 41.2284 27.9984 41.2284C33.0796 41.2284 37.1988 37.1092 37.1988 32.0279C37.1988 27.9431 34.5367 24.48 30.8528 23.2789Z" fill="#E7ECF1"/>
<path d="M27.9988 31.9417V24.4283C27.9988 24.3803 28.0382 24.341 28.0862 24.3416C32.2556 24.3882 35.6385 27.7712 35.6851 31.9405C35.6857 31.9886 35.6464 32.0279 35.5984 32.0279H28.085C28.0374 32.0279 27.9988 31.9893 27.9988 31.9417Z" fill="#DA4A54"/>
<path d="M35.5982 32.0279C35.6462 32.0279 35.6855 31.9886 35.6849 31.9406C35.6657 30.2247 35.0814 28.642 34.1098 27.3702C34.5402 28.4348 34.7772 29.5982 34.7772 30.817C34.7772 31.2275 34.7503 31.6317 34.6982 32.0279H35.5982Z" fill="#D82E3D"/>
</g>
<defs>
<clipPath id="clip0_1_291">
<rect width="30.5455" height="30.5455" fill="white" transform="translate(12.7263 12.7273)"/>
</clipPath>
</defs>
</svg>
