<svg width="34" height="26" viewBox="0 0 34 26" fill="none" xmlns="http://www.w3.org/2000/svg">
<path d="M18.6714 22.4233H15.3284L15.1434 23.4958C14.9448 24.6473 15.8315 25.6999 16.9999 25.6999C18.1683 25.6999 19.0549 24.6473 18.8563 23.4958L18.6714 22.4233Z" fill="#FFDD27"/>
<path d="M18.8827 23.7402C18.8794 23.6595 18.8707 23.5779 18.8565 23.4957L18.6715 22.4233L16.0495 21.8186L15.3286 22.4233L15.1436 23.4957C15.1294 23.5779 15.1208 23.6595 15.1174 23.7402H18.8827Z" fill="#F9C91A"/>
<path d="M25.1818 17.1901C24.9671 16.8181 24.854 16.3962 24.854 15.9665V11.677C24.854 8.19625 22.5897 5.24421 19.4537 4.21368C19.3583 4.18236 19.318 4.08271 19.3603 3.99162C19.5446 3.59436 19.6315 3.14302 19.5901 2.66853C19.4993 1.62874 18.6103 0.300537 17.0032 0.300537C15.5589 0.300537 14.3995 1.47284 14.3995 2.90095C14.3995 3.28332 14.4824 3.64671 14.6314 3.97405C14.6772 4.07478 14.6274 4.18665 14.5224 4.22155C11.3987 5.25904 9.14572 8.20488 9.14572 11.677L9.14578 15.9666C9.14578 16.3962 9.0327 16.8182 8.81793 17.1902L17.1742 18.8641L25.1818 17.1901ZM16.0781 2.90089C16.0781 2.39176 16.4908 1.97909 16.9999 1.97909C17.509 1.97909 17.9217 2.39182 17.9217 2.90089C17.9217 3.40995 17.5089 3.82268 16.9999 3.82268C16.4908 3.82275 16.0781 3.41001 16.0781 2.90089Z" fill="#FFDD27"/>
<path d="M22.2202 10.0308V14.3203C22.2202 14.7498 22.3333 15.1719 22.5481 15.5439L23.4985 17.1901L24.7665 17.6998L25.182 17.1901C24.9672 16.8181 24.8542 16.3962 24.8542 15.9666V11.6771C24.8542 8.31044 22.7359 5.43843 19.7595 4.32129C21.2747 5.75311 22.2202 7.78156 22.2202 10.0308V10.0308Z" fill="#F9C91A"/>
<path d="M33.3637 12.368C33.3637 14.9706 32.4234 17.353 30.8644 19.1946C30.5557 19.5593 29.9985 19.5769 29.6606 19.2391L29.6561 19.2346C29.3518 18.9303 29.3373 18.4457 29.6148 18.1168C30.9261 16.563 31.7174 14.5566 31.7174 12.368C31.7174 10.1799 30.9259 8.17296 29.6151 6.61906C29.3376 6.29025 29.3522 5.80586 29.6563 5.5016L29.6611 5.49681C29.999 5.15873 30.5564 5.17631 30.8652 5.54123C32.424 7.38336 33.3637 9.76612 33.3637 12.368Z" fill="#FFDD27"/>
<path d="M30.0711 12.3681C30.0711 14.0411 29.5037 15.5846 28.551 16.8157C28.2471 17.2083 27.6686 17.2473 27.3175 16.8962L27.3165 16.8952C27.023 16.6017 26.9963 16.1371 27.2501 15.8087C27.9862 14.8563 28.4248 13.6627 28.4248 12.3682C28.4248 11.0736 27.9862 9.88005 27.2501 8.92757C26.9963 8.59921 27.023 8.13451 27.3165 7.84105L27.3175 7.84003C27.6686 7.48898 28.2471 7.52791 28.551 7.92057C29.5037 9.15155 30.0711 10.6951 30.0711 12.3681V12.3681Z" fill="#FFDD27"/>
<path d="M0.636353 12.368C0.636353 14.9706 1.57662 17.353 3.13564 19.1946C3.44438 19.5593 4.00157 19.5769 4.33946 19.2391L4.34393 19.2346C4.64826 18.9303 4.66277 18.4457 4.38522 18.1168C3.07396 16.563 2.28262 14.5566 2.28262 12.368C2.28262 10.1799 3.07409 8.17296 4.38497 6.61906C4.66238 6.29025 4.64781 5.80586 4.34374 5.5016L4.33894 5.49681C4.00106 5.15873 3.44367 5.17631 3.13488 5.54123C1.57605 7.38336 0.636353 9.76612 0.636353 12.368H0.636353Z" fill="#FFDD27"/>
<path d="M3.92908 12.3681C3.92908 14.0411 4.49643 15.5846 5.44917 16.8157C5.75305 17.2083 6.33159 17.2473 6.68264 16.8962L6.68366 16.8952C6.97712 16.6017 7.00384 16.1371 6.75008 15.8087C6.01397 14.8563 5.57535 13.6627 5.57535 12.3682C5.57535 11.0736 6.01397 9.88005 6.75008 8.92757C7.00384 8.59921 6.97712 8.13451 6.68366 7.84105L6.68264 7.84003C6.33159 7.48898 5.75305 7.52791 5.44917 7.92057C4.49643 9.15155 3.92908 10.6951 3.92908 12.3681V12.3681Z" fill="#FFDD27"/>
<path d="M17 5.99503C16.5226 5.99503 16.0646 5.88905 15.6386 5.6801C15.3937 5.55999 15.2926 5.26404 15.4127 5.01916C15.5328 4.77422 15.8287 4.67316 16.0736 4.79326C16.3631 4.93523 16.6747 5.00727 17 5.00727C17.3224 5.00727 17.6316 4.93651 17.919 4.79697C18.1642 4.67782 18.4598 4.78003 18.5789 5.02542C18.6981 5.27075 18.5959 5.56625 18.3505 5.6854C17.9276 5.89091 17.4732 5.99503 17 5.99503V5.99503Z" fill="#F9C91A"/>
<path d="M25.1821 17.1902H8.81823L6.03884 22.0042C5.93126 22.1905 6.06575 22.4234 6.28084 22.4234H27.7196C27.9347 22.4234 28.0691 22.1905 27.9616 22.0042L25.1821 17.1902Z" fill="#F6E266"/>
<path d="M27.9614 22.004L25.1821 17.1899H23.4985L23.8822 17.8545C24.6321 19.1533 23.6948 20.7768 22.195 20.7768H6.74721L6.03872 22.004C5.93114 22.1902 6.06563 22.4231 6.28072 22.4231H27.7194C27.9346 22.4232 28.069 22.1904 27.9614 22.004V22.004Z" fill="#F4D820"/>
</svg>
