<svg width="30" height="34" viewBox="0 0 30 34" fill="none" xmlns="http://www.w3.org/2000/svg">
<path d="M29.4796 7.18379L16.7824 6.15039L0.519958 7.18379V32.5628C0.519958 33.0052 0.878488 33.3637 1.32082 33.3637H28.6786C29.121 33.3637 29.4797 33.005 29.4797 32.5626L29.4796 7.18379Z" fill="#F6F9F9"/>
<path d="M29.4796 7.1839L26.8457 5.86694V25.941C26.8457 29.3131 24.112 32.0468 20.7399 32.0468H0.519958V32.5629C0.519958 33.0053 0.878488 33.3638 1.32082 33.3638H28.6786C29.121 33.3638 29.4796 33.0051 29.4796 32.5627V7.1839Z" fill="#E7ECF1"/>
<path d="M28.6786 2.50464H1.32095C0.878552 2.50464 0.519958 2.86323 0.519958 3.30563V7.18387H29.4796V3.30563C29.4796 2.86323 29.121 2.50464 28.6786 2.50464V2.50464Z" fill="#61A2F9"/>
<path d="M28.6786 2.50464H26.8456V7.18387H29.4796V3.30563C29.4796 2.86323 29.121 2.50464 28.6786 2.50464V2.50464Z" fill="#5490F9"/>
<path d="M4.61298 5.04481H4.16298C3.72224 5.04481 3.36493 4.6875 3.36493 4.24677V1.43452C3.36493 0.99379 3.72224 0.636475 4.16298 0.636475H4.61298C5.05371 0.636475 5.41102 0.99379 5.41102 1.43452V4.2467C5.41102 4.6875 5.05377 5.04481 4.61298 5.04481Z" fill="#DAE4EA"/>
<path d="M9.91894 5.04481H9.46894C9.02821 5.04481 8.6709 4.6875 8.6709 4.24677V1.43452C8.6709 0.99379 9.02821 0.636475 9.46894 0.636475H9.91894C10.3597 0.636475 10.717 0.99379 10.717 1.43452V4.2467C10.717 4.6875 10.3597 5.04481 9.91894 5.04481Z" fill="#DAE4EA"/>
<path d="M15.2249 5.04481H14.7749C14.3342 5.04481 13.9769 4.6875 13.9769 4.24677V1.43452C13.9769 0.99379 14.3342 0.636475 14.7749 0.636475H15.2249C15.6656 0.636475 16.023 0.99379 16.023 1.43452V4.2467C16.023 4.6875 15.6656 5.04481 15.2249 5.04481V5.04481Z" fill="#DAE4EA"/>
<path d="M20.5308 5.04481H20.0808C19.6401 5.04481 19.2828 4.6875 19.2828 4.24677V1.43452C19.2828 0.99379 19.64 0.636475 20.0808 0.636475H20.5308C20.9716 0.636475 21.3289 0.99379 21.3289 1.43452V4.2467C21.3289 4.6875 20.9716 5.04481 20.5308 5.04481Z" fill="#DAE4EA"/>
<path d="M25.8362 5.04481H25.3862C24.9455 5.04481 24.5881 4.6875 24.5881 4.24677V1.43452C24.5881 0.99379 24.9454 0.636475 25.3862 0.636475H25.8362C26.2769 0.636475 26.6342 0.99379 26.6342 1.43452V4.2467C26.6342 4.6875 26.2769 5.04481 25.8362 5.04481Z" fill="#DAE4EA"/>
<path d="M9.39282 13.5395V12.3812C9.39282 12.2384 9.50865 12.1226 9.65151 12.1226H24.2817C24.4246 12.1226 24.5404 12.2384 24.5404 12.3812V13.5395C24.5404 13.6824 24.4246 13.7982 24.2817 13.7982H9.65151C9.50865 13.7982 9.39282 13.6824 9.39282 13.5395V13.5395Z" fill="#DAE4EA"/>
<path d="M9.39282 16.8909V15.7326C9.39282 15.5897 9.50865 15.4739 9.65151 15.4739H24.2817C24.4246 15.4739 24.5404 15.5897 24.5404 15.7326V16.8909C24.5404 17.0337 24.4246 17.1496 24.2817 17.1496H9.65151C9.50865 17.1496 9.39282 17.0337 9.39282 16.8909V16.8909Z" fill="#DAE4EA"/>
<path d="M9.39282 20.2423V19.084C9.39282 18.9411 9.50865 18.8253 9.65151 18.8253H24.2817C24.4246 18.8253 24.5404 18.9411 24.5404 19.084V20.2423C24.5404 20.3852 24.4246 20.501 24.2817 20.501H9.65151C9.50865 20.501 9.39282 20.3852 9.39282 20.2423V20.2423Z" fill="#DAE4EA"/>
<path d="M9.39282 23.5936V22.4353C9.39282 22.2925 9.50865 22.1766 9.65151 22.1766H24.2817C24.4246 22.1766 24.5404 22.2925 24.5404 22.4353V23.5936C24.5404 23.7365 24.4246 23.8523 24.2817 23.8523H9.65151C9.50865 23.8524 9.39282 23.7366 9.39282 23.5936V23.5936Z" fill="#DAE4EA"/>
<path d="M9.39282 26.9451V25.7868C9.39282 25.6439 9.50865 25.5281 9.65151 25.5281H24.2817C24.4246 25.5281 24.5404 25.6439 24.5404 25.7868V26.9451C24.5404 27.0879 24.4246 27.2038 24.2817 27.2038H9.65151C9.50865 27.2038 9.39282 27.0879 9.39282 26.9451V26.9451Z" fill="#DAE4EA"/>
<path d="M5.45844 13.5395V12.3812C5.45844 12.2384 5.57426 12.1226 5.71712 12.1226H7.15885C7.30171 12.1226 7.41754 12.2384 7.41754 12.3812V13.5395C7.41754 13.6824 7.30171 13.7982 7.15885 13.7982H5.71712C5.57426 13.7982 5.45844 13.6824 5.45844 13.5395V13.5395Z" fill="#DAE4EA"/>
<path d="M5.45844 16.8909V15.7326C5.45844 15.5897 5.57426 15.4739 5.71712 15.4739H7.15885C7.30171 15.4739 7.41754 15.5897 7.41754 15.7326V16.8909C7.41754 17.0337 7.30171 17.1496 7.15885 17.1496H5.71712C5.57426 17.1496 5.45844 17.0337 5.45844 16.8909V16.8909Z" fill="#DAE4EA"/>
<path d="M5.45844 20.2423V19.084C5.45844 18.9411 5.57426 18.8253 5.71712 18.8253H7.15885C7.30171 18.8253 7.41754 18.9411 7.41754 19.084V20.2423C7.41754 20.3852 7.30171 20.501 7.15885 20.501H5.71712C5.57426 20.501 5.45844 20.3852 5.45844 20.2423V20.2423Z" fill="#DAE4EA"/>
<path d="M5.45844 23.5936V22.4353C5.45844 22.2925 5.57426 22.1766 5.71712 22.1766H7.15885C7.30171 22.1766 7.41754 22.2925 7.41754 22.4353V23.5936C7.41754 23.7365 7.30171 23.8523 7.15885 23.8523H5.71712C5.57426 23.8524 5.45844 23.7366 5.45844 23.5936V23.5936Z" fill="#DAE4EA"/>
<path d="M5.45844 26.9451V25.7868C5.45844 25.6439 5.57426 25.5281 5.71712 25.5281H7.15885C7.30171 25.5281 7.41754 25.6439 7.41754 25.7868V26.9451C7.41754 27.0879 7.30171 27.2038 7.15885 27.2038H5.71712C5.57426 27.2038 5.45844 27.0879 5.45844 26.9451V26.9451Z" fill="#DAE4EA"/>
</svg>
