<svg width="240" height="152" viewBox="0 0 240 152" fill="none" xmlns="http://www.w3.org/2000/svg">
<rect width="240" height="152" rx="40" fill="#F35325" fill-opacity="0.1"/>
<path d="M96.7436 74.2095C96.7383 74.2147 96.7279 74.2147 96.7227 74.2147V74.2199C96.7227 74.2252 96.7279 74.2252 96.7279 74.2252C96.9004 74.2618 97.0729 74.2984 97.2455 74.3297C97.0729 74.2879 96.9109 74.2461 96.7436 74.2095ZM96.7436 74.2095C96.7383 74.2147 96.7279 74.2147 96.7227 74.2147V74.2199C96.7227 74.2252 96.7279 74.2252 96.7279 74.2252C96.9004 74.2618 97.0729 74.2984 97.2455 74.3297C97.0729 74.2879 96.9109 74.2461 96.7436 74.2095ZM96.7436 74.2095C96.7383 74.2147 96.7279 74.2147 96.7227 74.2147V74.2199C96.7227 74.2252 96.7279 74.2252 96.7279 74.2252C96.9004 74.2618 97.0729 74.2984 97.2455 74.3297C97.0729 74.2879 96.9109 74.2461 96.7436 74.2095ZM96.7436 74.2095C96.7383 74.2147 96.7279 74.2147 96.7227 74.2147V74.2199C96.7227 74.2252 96.7279 74.2252 96.7279 74.2252C96.9004 74.2618 97.0729 74.2984 97.2455 74.3297C97.0729 74.2879 96.9109 74.2461 96.7436 74.2095ZM96.7436 74.2095C96.7383 74.2147 96.7279 74.2147 96.7227 74.2147V74.2199C96.7227 74.2252 96.7279 74.2252 96.7279 74.2252C96.9004 74.2618 97.0729 74.2984 97.2455 74.3297C97.0729 74.2879 96.9109 74.2461 96.7436 74.2095Z" fill="#FFC005"/>
<path d="M118.929 59.4606C118.929 61.7767 118.683 64.0248 118.218 66.1632C117.758 68.2963 117.078 70.3248 116.221 72.2174C114.344 73.0696 112.331 73.744 110.218 74.2041C108.059 74.6747 105.795 74.9256 103.457 74.9256C101.324 74.9256 99.2429 74.7165 97.2508 74.3191C97.2455 74.3191 97.2403 74.3139 97.2403 74.3139C97.073 74.2773 96.9109 74.2355 96.7436 74.1989C96.9109 74.1623 97.073 74.1257 97.2403 74.0839C97.0678 74.1152 96.8952 74.1518 96.7227 74.1884C97.941 68.589 100.639 63.7059 104.289 60.1873C107.802 56.5799 112.655 53.9135 118.213 52.7058V52.711C118.218 52.7215 118.218 52.732 118.218 52.7424C118.683 54.8964 118.929 57.1445 118.929 59.4606Z" fill="#FF733B"/>
<path d="M97.2396 74.3244C97.0671 74.293 96.8946 74.2564 96.722 74.2198C96.722 74.2198 96.7168 74.2198 96.7168 74.2146V74.2093C96.722 74.2093 96.7325 74.2093 96.7377 74.2041C96.9102 74.2459 97.0723 74.2878 97.2396 74.3244Z" fill="#FFC005"/>
<path d="M118.212 52.7163C116.058 52.251 113.805 52 111.478 52C106.856 52 102.505 52.9829 98.7144 54.7082C96.9889 58.4986 96.0059 62.8485 96.0059 67.4702C96.0059 69.7968 96.2568 72.0553 96.7222 74.2041C96.7222 74.1989 96.7274 74.1989 96.7274 74.1989C97.9457 68.5995 100.644 63.7164 104.293 60.1978C107.807 56.5903 112.659 53.924 118.218 52.7163H118.212Z" fill="#7188FF"/>
<path d="M121.652 52.7371C121.646 52.7319 121.646 52.7214 121.646 52.7162H121.641C121.636 52.7162 121.636 52.7214 121.636 52.7214C121.599 52.8939 121.563 53.0665 121.531 53.239C121.578 53.0717 121.615 52.9044 121.652 52.7371ZM121.652 52.7371C121.646 52.7319 121.646 52.7214 121.646 52.7162H121.641C121.636 52.7162 121.636 52.7214 121.636 52.7214C121.599 52.8939 121.563 53.0665 121.531 53.239C121.578 53.0717 121.615 52.9044 121.652 52.7371ZM121.652 52.7371C121.646 52.7319 121.646 52.7214 121.646 52.7162H121.641C121.636 52.7162 121.636 52.7214 121.636 52.7214C121.599 52.8939 121.563 53.0665 121.531 53.239C121.578 53.0717 121.615 52.9044 121.652 52.7371ZM121.652 52.7371C121.646 52.7319 121.646 52.7214 121.646 52.7162H121.641C121.636 52.7162 121.636 52.7214 121.636 52.7214C121.599 52.8939 121.563 53.0665 121.531 53.239C121.578 53.0717 121.615 52.9044 121.652 52.7371ZM121.652 52.7371C121.646 52.7319 121.646 52.7214 121.646 52.7162H121.641C121.636 52.7162 121.636 52.7214 121.636 52.7214C121.599 52.8939 121.563 53.0665 121.531 53.239C121.578 53.0717 121.615 52.9044 121.652 52.7371Z" fill="#FFC005"/>
<path d="M136.407 74.9308C134.09 74.9308 131.842 74.685 129.698 74.2197C127.56 73.7596 125.531 73.08 123.638 72.2173C122.786 70.3404 122.111 68.3276 121.651 66.2101C121.181 64.0509 120.93 61.7819 120.93 59.4501C120.93 57.3118 121.139 55.2362 121.536 53.2442C121.536 53.239 121.541 53.2338 121.541 53.2338C121.578 53.0665 121.62 52.9044 121.656 52.7371C121.693 52.9044 121.73 53.0665 121.772 53.2338C121.74 53.0612 121.704 52.8887 121.667 52.7162C127.272 53.9344 132.156 56.6373 135.675 60.2814C139.283 63.7999 141.949 68.6465 143.157 74.2093H143.152C143.141 74.2145 143.131 74.2145 143.121 74.2145C140.977 74.685 138.728 74.9308 136.407 74.9308Z" fill="#FF733B"/>
<path d="M121.541 53.2339C121.572 53.0613 121.609 52.8888 121.646 52.7163C121.646 52.7163 121.646 52.7111 121.651 52.7111H121.656C121.656 52.7163 121.656 52.7267 121.661 52.732C121.614 52.9045 121.578 53.0718 121.541 53.2339Z" fill="#FFC005"/>
<path d="M143.162 74.2146C143.627 72.0658 143.878 69.8072 143.878 67.4807C143.878 62.8537 142.895 58.5039 141.165 54.7134C137.369 52.9829 133.024 52 128.396 52C126.069 52 123.81 52.251 121.656 52.7163C121.661 52.7163 121.661 52.7215 121.661 52.7215C127.267 53.9397 132.15 56.6426 135.669 60.2867C139.277 63.8053 141.944 68.6518 143.152 74.2146H143.162C143.162 74.2146 143.157 74.2146 143.162 74.2146Z" fill="#7188FF"/>
<path d="M143.129 77.6524C143.134 77.6471 143.145 77.6471 143.15 77.6471V77.6419C143.15 77.6367 143.145 77.6367 143.145 77.6367C142.972 77.6001 142.8 77.5635 142.627 77.5321C142.8 77.5792 142.967 77.6158 143.129 77.6524ZM143.129 77.6524C143.134 77.6471 143.145 77.6471 143.15 77.6471V77.6419C143.15 77.6367 143.145 77.6367 143.145 77.6367C142.972 77.6001 142.8 77.5635 142.627 77.5321C142.8 77.5792 142.967 77.6158 143.129 77.6524ZM143.129 77.6524C143.134 77.6471 143.145 77.6471 143.15 77.6471V77.6419C143.15 77.6367 143.145 77.6367 143.145 77.6367C142.972 77.6001 142.8 77.5635 142.627 77.5321C142.8 77.5792 142.967 77.6158 143.129 77.6524ZM143.129 77.6524C143.134 77.6471 143.145 77.6471 143.15 77.6471V77.6419C143.15 77.6367 143.145 77.6367 143.145 77.6367C142.972 77.6001 142.8 77.5635 142.627 77.5321C142.8 77.5792 142.967 77.6158 143.129 77.6524ZM143.129 77.6524C143.134 77.6471 143.145 77.6471 143.15 77.6471V77.6419C143.15 77.6367 143.145 77.6367 143.145 77.6367C142.972 77.6001 142.8 77.5635 142.627 77.5321C142.8 77.5792 142.967 77.6158 143.129 77.6524Z" fill="#FFC005"/>
<path d="M120.943 92.401C120.943 90.0849 121.189 87.8368 121.654 85.6985C122.115 83.5654 122.794 81.5368 123.652 79.6442C125.529 78.792 127.542 78.1176 129.654 77.6575C131.814 77.187 134.078 76.936 136.415 76.936C138.549 76.936 140.63 77.1452 142.622 77.5425C142.627 77.5425 142.632 77.5477 142.632 77.5477C142.8 77.5843 142.962 77.6262 143.129 77.6628C142.962 77.6994 142.8 77.7359 142.632 77.7778C142.805 77.7464 142.977 77.7098 143.15 77.6732C141.932 83.2726 139.234 88.1557 135.584 91.6743C132.07 95.2817 127.218 97.9481 121.66 99.1558V99.1506C121.654 99.1402 121.654 99.1297 121.654 99.1192C121.189 96.9705 120.943 94.7171 120.943 92.401Z" fill="#FF733B"/>
<path d="M142.633 77.5425C142.805 77.5738 142.978 77.6104 143.15 77.647C143.15 77.647 143.156 77.647 143.156 77.6523V77.6575C143.15 77.6575 143.14 77.6575 143.135 77.6627C142.967 77.6157 142.8 77.5791 142.633 77.5425Z" fill="#FFC005"/>
<path d="M121.665 99.1507C123.814 99.616 126.073 99.867 128.4 99.867C133.022 99.867 137.373 98.8841 141.163 97.1588C142.889 93.3683 143.872 89.0185 143.872 84.3967C143.872 82.0702 143.621 79.8116 143.156 77.6628C143.156 77.6681 143.15 77.6681 143.15 77.6681C141.932 83.2675 139.234 88.1506 135.584 91.6692C132.071 95.2766 127.218 97.943 121.66 99.1507H121.665C121.665 99.1507 121.665 99.1455 121.665 99.1507Z" fill="#7188FF"/>
<path d="M118.223 99.1245C118.228 99.1297 118.228 99.1401 118.228 99.1454H118.233C118.238 99.1454 118.238 99.1401 118.238 99.1401C118.275 98.9676 118.312 98.7951 118.343 98.6226C118.296 98.7951 118.259 98.9624 118.223 99.1245ZM118.223 99.1245C118.228 99.1297 118.228 99.1401 118.228 99.1454H118.233C118.238 99.1454 118.238 99.1401 118.238 99.1401C118.275 98.9676 118.312 98.7951 118.343 98.6226C118.296 98.7951 118.259 98.9624 118.223 99.1245ZM118.223 99.1245C118.228 99.1297 118.228 99.1401 118.228 99.1454H118.233C118.238 99.1454 118.238 99.1401 118.238 99.1401C118.275 98.9676 118.312 98.7951 118.343 98.6226C118.296 98.7951 118.259 98.9624 118.223 99.1245ZM118.223 99.1245C118.228 99.1297 118.228 99.1401 118.228 99.1454H118.233C118.238 99.1454 118.238 99.1401 118.238 99.1401C118.275 98.9676 118.312 98.7951 118.343 98.6226C118.296 98.7951 118.259 98.9624 118.223 99.1245ZM118.223 99.1245C118.228 99.1297 118.228 99.1401 118.228 99.1454H118.233C118.238 99.1454 118.238 99.1401 118.238 99.1401C118.275 98.9676 118.312 98.7951 118.343 98.6226C118.296 98.7951 118.259 98.9624 118.223 99.1245Z" fill="#FFC005"/>
<path d="M103.467 76.9309C105.783 76.9309 108.032 77.1766 110.176 77.6419C112.314 78.102 114.343 78.7817 116.236 79.6443C117.088 81.5213 117.763 83.5341 118.223 85.6515C118.693 87.8108 118.944 90.0798 118.944 92.4116C118.944 94.5499 118.735 96.6255 118.338 98.6174C118.338 98.6227 118.332 98.6279 118.332 98.6279C118.296 98.7952 118.254 98.9573 118.217 99.1246C118.181 98.9573 118.144 98.7952 118.102 98.6279C118.134 98.8004 118.17 98.9729 118.207 99.1455C112.602 97.9273 107.718 95.2243 104.199 91.5803C100.591 88.0617 97.9246 83.2152 96.7168 77.6524H96.722C96.7325 77.6472 96.7429 77.6472 96.7534 77.6472C98.8972 77.1766 101.151 76.9309 103.467 76.9309Z" fill="#FF733B"/>
<path d="M118.337 98.6279C118.306 98.8005 118.269 98.973 118.232 99.1455C118.232 99.1455 118.232 99.1507 118.227 99.1507H118.222C118.222 99.1455 118.222 99.1351 118.217 99.1298C118.259 98.9625 118.295 98.7952 118.337 98.6279Z" fill="#FFC005"/>
<path d="M96.7163 77.6523C96.251 79.8011 96 82.0597 96 84.3863C96 89.0132 96.983 93.3631 98.7137 97.1535C102.505 98.8788 106.855 99.8669 111.482 99.8669C113.809 99.8669 116.068 99.616 118.222 99.1507C118.217 99.1507 118.217 99.1454 118.217 99.1454C112.612 97.9273 107.728 95.2243 104.209 91.5802C100.601 88.0617 97.9346 83.2151 96.7268 77.6523H96.7163Z" fill="#7188FF"/>
</svg>
