<svg width="182" height="115" viewBox="0 0 182 115" fill="none" xmlns="http://www.w3.org/2000/svg">
<rect x="0.758423" y="0.342896" width="180.526" height="114.333" rx="48" fill="#1C60BF" fill-opacity="0.1"/>
<path d="M87.453 65.3583L87.0742 64.3963C86.5479 63.0521 85.482 61.9861 84.1378 61.4599L83.1757 61.0811L82.7768 60.9269L80.5243 60.0453V60.0419L80.0416 59.8542L77.742 58.9525L75.8515 58.2117C75.5431 58.0776 75.3889 57.8497 75.3889 57.5312C75.3889 57.5212 75.3889 57.5178 75.3922 57.5111C75.3889 57.5044 75.3889 57.4977 75.3889 57.491C75.3889 57.1692 75.5431 56.9413 75.8515 56.8105L77.742 56.0664L80.0416 55.1647L80.5243 54.9769L79.5957 52.8484L79.5589 52.7612L77.3398 53.6328L74.7118 54.6652C74.0715 54.92 73.619 55.2786 73.3609 55.7379C73.0994 56.1971 72.9687 56.7904 72.9687 57.5111C72.9687 58.2318 73.0994 58.8218 73.3609 59.2844C73.619 59.7436 74.0715 60.1023 74.7118 60.3537L77.3431 61.3861L79.5622 62.2576L79.6494 62.2912L81.8114 63.1392L82.5556 61.433L81.8114 63.1392L82.274 63.3202C83.6182 63.8499 84.6808 64.9125 85.2104 66.2567L85.3915 66.7192L87.6072 65.7539L87.453 65.3583Z" fill="url(#paint0_linear_1_1031)"/>
<path d="M104.565 67.031L103.439 64.4398L102.487 62.2576L102.47 62.2643L102.487 62.2576L102.45 62.1705L101.522 60.0419L100.543 60.4274L101.525 60.0419L101.324 59.586C100.747 58.262 100.747 56.7569 101.324 55.4328L101.525 54.9769L99.2724 54.0953L99.1014 54.4842L98.6891 55.4295C98.1092 56.7569 98.1092 58.2653 98.6891 59.5894L99.1014 60.5347L99.2724 60.9269L100.241 63.1426L101.253 62.7437L100.241 63.1426L100.446 63.6152L101.438 65.8812L102.249 67.7416C102.37 68.05 102.319 68.3215 102.091 68.5495L102.078 68.5629C102.075 68.5662 102.071 68.5729 102.065 68.5763C101.837 68.8042 101.569 68.8545 101.257 68.7338L99.3964 67.9193L97.1304 66.9304L96.6578 66.7226L95.8097 68.8847L95.7728 68.9718L97.9584 69.9238L100.55 71.0535C101.18 71.3283 101.753 71.3954 102.262 71.2512C102.772 71.1104 103.281 70.7853 103.791 70.2758C104.3 69.7663 104.629 69.2567 104.77 68.7472C104.907 68.2377 104.84 67.6645 104.565 67.031Z" fill="url(#paint1_linear_1_1031)"/>
<path d="M94.8979 43.8312L93.8655 41.1999C93.6141 40.5596 93.2554 40.1071 92.7962 39.849C92.3336 39.5875 91.7436 39.4568 91.0229 39.4568C90.3023 39.4568 89.7123 39.5875 89.2497 39.849C88.7905 40.1071 88.4318 40.5596 88.1804 41.1999L87.1446 43.8312L86.2764 46.047L86.3636 46.0838L87.7748 46.7006L86.3636 46.0838L86.2764 46.047L86.2429 46.1341L85.3948 48.2962L85.2138 48.7588C84.6842 50.103 83.6216 51.1656 82.2774 51.6952L81.8115 51.8796L82.7802 54.0953L83.1791 53.9377L84.1378 53.5623C85.4853 53.036 86.5513 51.9701 87.0776 50.6225L87.4563 49.6605L87.6105 49.2649L86.9971 48.9968L87.6105 49.2649L88.4921 47.0123L88.6832 46.533L89.5849 44.2301L90.3257 42.3396C90.4598 42.0345 90.6844 41.8803 91.0062 41.8803H91.0464C91.3682 41.8803 91.5928 42.0345 91.7269 42.3396L92.4677 44.2301L93.3727 46.533L93.5605 47.0123L95.689 46.0872L95.7728 46.047L94.8979 43.8312Z" fill="url(#paint2_linear_1_1031)"/>
<path d="M104.766 46.2749C104.626 45.7654 104.297 45.2559 103.788 44.7464C103.278 44.2335 102.769 43.9084 102.259 43.7676C101.75 43.6268 101.176 43.6938 100.546 43.9654L97.955 45.095L95.7695 46.047V46.0503L95.6857 46.0872L93.5571 47.0124L93.0979 47.2135C91.7772 47.7901 90.2721 47.7901 88.948 47.2135L88.4888 47.0124L87.6072 49.265L87.9994 49.4359L88.9447 49.8482C90.2687 50.4281 91.7772 50.4281 93.1012 49.8482L94.0499 49.4359L94.4387 49.265L94.2845 48.8694L94.4387 49.265L96.6544 48.2962L95.8063 46.1341L95.7862 46.0872L95.8063 46.1375L96.6544 48.2962L97.1271 48.0918L99.3931 47.0995L101.253 46.2883C101.565 46.1677 101.833 46.2179 102.061 46.4459C102.065 46.4492 102.071 46.4526 102.075 46.4593C102.078 46.4626 102.085 46.466 102.088 46.4727C102.316 46.7006 102.366 46.9688 102.246 47.2806L101.434 49.1409L100.442 51.4069L100.238 51.8796L102.397 52.7277L102.487 52.7612L103.436 50.579L104.569 47.9878C104.84 47.3543 104.907 46.7844 104.766 46.2749Z" fill="url(#paint3_linear_1_1031)"/>
<path d="M108.685 55.7379C108.427 55.2786 107.974 54.92 107.334 54.6652L104.703 53.6328L102.487 52.7612L102.46 52.8149L102.484 52.7612L102.397 52.7277L100.238 51.8796L99.7719 51.6953C98.4277 51.1656 97.3651 50.103 96.8354 48.7588L96.6544 48.2963L94.4387 49.265L94.5929 49.6606L94.9717 50.6226C95.498 51.9701 96.5639 53.0361 97.9115 53.5624L98.8702 53.9378L99.2691 54.0953L101.522 54.9769L102.078 53.7032L101.525 54.9769L102.004 55.1647L104.304 56.0664L106.198 56.8105C106.503 56.9412 106.657 57.1692 106.657 57.491C106.657 57.4977 106.657 57.5044 106.654 57.5111C106.657 57.5178 106.657 57.5212 106.657 57.5312C106.657 57.8497 106.503 58.0776 106.198 58.2117L104.304 58.9525L102.004 59.8542L101.525 60.0419L102.454 62.1705L102.49 62.2576L104.706 61.3861L107.337 60.3537C107.978 60.1022 108.43 59.7436 108.688 59.2843C108.95 58.8218 109.081 58.2318 109.081 57.5111C109.077 56.7904 108.946 56.1971 108.685 55.7379Z" fill="url(#paint4_linear_1_1031)"/>
<path d="M94.0465 65.5862L93.1012 65.1706C91.7738 64.594 90.2687 64.594 88.9447 65.1706L87.9994 65.5862L87.6072 65.7572L85.3915 66.7259L84.9188 66.9338L82.6528 67.9226L80.7924 68.7338C80.4807 68.8579 80.2125 68.8076 79.9846 68.5796C79.9812 68.5763 79.9745 68.5696 79.9712 68.5662C79.9678 68.5629 79.9611 68.5562 79.9578 68.5528C79.7298 68.3249 79.6796 68.0534 79.8002 67.745L80.6148 65.8846L81.6036 63.6152L81.8115 63.1459L79.6494 62.2945L79.5622 62.261L78.6069 64.4432L77.4806 67.0343C77.2057 67.6679 77.1387 68.2377 77.2795 68.7506C77.4236 69.2601 77.7488 69.7696 78.2583 70.2791C78.7678 70.7886 79.2773 71.1138 79.7868 71.2546C80.2963 71.3987 80.8695 71.3317 81.4997 71.0568L84.0909 69.9272L86.2764 68.9752L86.3636 68.9383L88.4921 68.0098L87.9592 66.6522L88.4921 68.0098L88.948 67.812C90.2721 67.2355 91.7738 67.2355 93.0979 67.812L93.5571 68.0098L94.4387 65.7605L94.0465 65.5862Z" fill="url(#paint5_linear_1_1031)"/>
<path d="M84.0909 45.095L81.4997 43.9654C80.8695 43.6938 80.2963 43.6268 79.7868 43.7676C79.2773 43.9084 78.7678 44.2335 78.2583 44.7464C77.7488 45.2559 77.4236 45.7654 77.2795 46.2749C77.1387 46.7844 77.2057 47.3543 77.4773 47.9878L78.6103 50.579L79.5622 52.7612L79.5991 52.8483L80.5276 54.9769L81.6171 54.5512L80.531 54.9769L80.7288 55.4361C81.3053 56.7602 81.3053 58.2619 80.7288 59.586L80.531 60.0419L82.7802 60.9268L82.9512 60.5346L83.3601 59.5893C83.94 58.2653 83.94 56.7602 83.3635 55.4328L82.9478 54.4875L82.7769 54.0953L81.8081 51.8796L81.6037 51.4069L80.6148 49.1409L79.8002 47.2806C79.6796 46.9688 79.7298 46.7006 79.9578 46.4727C79.9611 46.466 79.9678 46.4626 79.9712 46.4593C79.9745 46.4526 79.9813 46.4492 79.9846 46.4459C80.2125 46.2179 80.4807 46.1677 80.7925 46.2883L82.6528 47.0995L84.9188 48.0918L85.3915 48.2962L86.2429 46.1375L86.2764 46.047L84.0909 45.095Z" fill="url(#paint6_linear_1_1031)"/>
<path d="M99.269 60.9269L98.8701 61.0811L97.9081 61.4599C96.5639 61.9861 95.498 63.0521 94.9717 64.3963L94.5929 65.3583L94.4387 65.7572L93.5571 68.0098L93.3694 68.4891L92.4643 70.792L91.7235 72.6826C91.5895 72.9876 91.3649 73.1452 91.0431 73.1452C91.0364 73.1452 91.0297 73.1452 91.023 73.1418C91.0163 73.1452 91.0095 73.1452 91.0028 73.1452C90.681 73.1452 90.4565 72.9876 90.3224 72.6826L89.5816 70.792L88.6799 68.4891L88.4921 68.0098L86.3602 68.9383L86.2764 68.9752L87.1446 71.1943L88.1804 73.8223C88.4318 74.4659 88.7905 74.9151 89.2497 75.1765C89.7123 75.438 90.3023 75.5654 91.023 75.5654C91.7437 75.5654 92.3336 75.438 92.7962 75.1765C93.2554 74.9151 93.6141 74.4659 93.8655 73.8223L94.8979 71.1943L95.7695 68.9752L95.7293 68.9551L95.7695 68.9718L95.803 68.8847L96.6511 66.7226L95.4577 66.203L96.6511 66.7226L96.8321 66.26C97.3617 64.9158 98.4243 63.8532 99.7685 63.3236L100.234 63.1426L99.269 60.9269Z" fill="url(#paint7_linear_1_1031)"/>
<defs>
<linearGradient id="paint0_linear_1_1031" x1="84.9591" y1="65.747" x2="74.9615" y2="54.3434" gradientUnits="userSpaceOnUse">
<stop stop-color="#221ECA"/>
<stop offset="1" stop-color="#6461DA"/>
</linearGradient>
<linearGradient id="paint1_linear_1_1031" x1="100.366" y1="68.8595" x2="98.4913" y2="57.7684" gradientUnits="userSpaceOnUse">
<stop stop-color="#93D8DE"/>
<stop offset="1" stop-color="#65C8D0"/>
</linearGradient>
<linearGradient id="paint2_linear_1_1031" x1="84.0636" y1="52.9811" x2="93.8269" y2="41.2652" gradientUnits="userSpaceOnUse">
<stop stop-color="#221ECA"/>
<stop offset="1" stop-color="#6461DA"/>
</linearGradient>
<linearGradient id="paint3_linear_1_1031" x1="103.662" y1="45.7999" x2="91.9458" y2="51.6579" gradientUnits="userSpaceOnUse">
<stop stop-color="#93D8DE"/>
<stop offset="1" stop-color="#65C8D0"/>
</linearGradient>
<linearGradient id="paint4_linear_1_1031" x1="94.4388" y1="55.2769" x2="109.077" y2="55.2769" gradientUnits="userSpaceOnUse">
<stop stop-color="#221ECA"/>
<stop offset="1" stop-color="#6461DA"/>
</linearGradient>
<linearGradient id="paint5_linear_1_1031" x1="81.3205" y1="66.9221" x2="90.6932" y2="63.7197" gradientUnits="userSpaceOnUse">
<stop stop-color="#93D8DE"/>
<stop offset="1" stop-color="#65C8D0"/>
</linearGradient>
<linearGradient id="paint6_linear_1_1031" x1="81.7332" y1="46.5404" x2="84.545" y2="58.0221" gradientUnits="userSpaceOnUse">
<stop stop-color="#93D8DE"/>
<stop offset="1" stop-color="#65C8D0"/>
</linearGradient>
<linearGradient id="paint7_linear_1_1031" x1="97.0522" y1="60.7094" x2="88.3824" y2="74.0656" gradientUnits="userSpaceOnUse">
<stop stop-color="#221ECA"/>
<stop offset="1" stop-color="#6461DA"/>
</linearGradient>
</defs>
</svg>
