<svg width="385" height="243" viewBox="0 0 385 243" fill="none" xmlns="http://www.w3.org/2000/svg">
<rect width="385" height="243" rx="54" fill="#4285F4" fill-opacity="0.1"/>
<path d="M161.884 169.252C156.262 167.205 151.555 164.165 147.693 160.101C143.84 156.058 140.925 150.929 138.967 144.663C137 138.386 136 130.962 136 122.4C136 113.786 137 106.31 138.957 99.9814C140.914 93.653 143.83 88.4724 147.682 84.3775C151.555 80.262 156.262 77.1805 161.884 75.1124C166.955 73.2408 172.785 72.2068 179.386 72.0206C178.304 72.4032 177.242 72.8065 176.221 73.2615C171.328 75.402 167.069 78.3697 163.508 82.113C159.416 86.4043 156.345 91.7607 154.273 98.1407C152.201 104.51 151.118 111.894 150.993 120.29C150.983 120.817 150.983 121.366 150.983 121.934C150.983 122.493 150.993 123.041 150.993 123.578V123.589C151.076 127.942 151.503 131.882 152.253 135.398C152.534 136.773 152.846 138.096 153.221 139.337C154.398 143.194 156.064 146.421 158.281 148.975C160.728 151.798 163.946 153.907 167.84 155.282C169.641 155.913 171.598 156.399 173.681 156.74C173.837 156.761 173.993 156.792 174.139 156.813C174.233 156.823 174.326 156.833 174.41 156.854C176.586 157.164 178.887 157.319 181.354 157.33H186.29C186.893 157.33 187.497 157.319 188.08 157.299C189.882 157.257 191.589 157.102 193.213 156.875H193.224C196.691 156.389 199.783 155.5 202.49 154.176C205.208 152.852 207.53 151.084 209.414 148.913C211.903 146.069 213.704 142.398 214.891 137.952C216.078 133.505 216.661 128.273 216.661 122.255C216.661 116.247 216.088 111.015 214.912 106.558C213.735 102.111 211.955 98.4199 209.518 95.5349C207.644 93.3428 205.333 91.5642 202.605 90.2303C202.501 90.1889 202.397 90.1475 202.293 90.0958H204.49C206.905 90.0958 209.144 90.2613 211.205 90.5508C211.257 90.5612 211.32 90.5612 211.382 90.5715C211.518 90.5922 211.663 90.6232 211.799 90.6439C212.142 90.6956 212.465 90.7576 212.798 90.8197C212.996 90.861 213.183 90.892 213.381 90.9334C213.433 90.9438 213.485 90.9644 213.548 90.9748L213.662 90.9955C213.767 91.0161 213.86 91.0368 213.944 91.0678C214.131 91.1092 214.318 91.1506 214.495 91.2023C214.985 91.3264 215.464 91.4608 215.932 91.6055C216.026 91.6366 216.109 91.6572 216.203 91.6883C216.515 91.7917 216.828 91.8951 217.13 91.9985C220.566 93.2497 223.273 95.0903 225.355 97.5307C227.333 99.8573 228.926 102.97 230.04 106.858C230.29 107.726 230.519 108.657 230.717 109.608C231.248 112.307 231.592 115.316 231.717 118.656C231.727 118.998 231.738 119.318 231.748 119.618V119.628C231.758 119.825 231.758 120.063 231.758 120.331C231.758 120.611 231.748 120.911 231.748 121.407C231.748 121.965 231.758 122.761 231.758 123.454V123.589C231.758 123.858 231.758 124.106 231.748 124.313V124.323C231.738 124.633 231.727 124.954 231.717 125.305C231.477 133.071 230.363 139.844 228.416 145.614C226.469 151.384 223.689 156.151 220.087 159.987C216.796 163.482 212.902 166.223 208.363 168.239" fill="#7188FF" fill-opacity="0.9"/>
<path d="M209.654 171C214.547 168.828 218.795 165.83 222.367 162.035C226.313 157.857 229.312 152.666 231.363 146.545C233.435 140.423 234.57 133.361 234.83 125.367V125.357C234.84 125.057 234.851 124.726 234.861 124.364C234.861 124.354 234.861 124.354 234.861 124.354C234.871 124.064 234.871 123.806 234.871 123.578V123.413C234.871 122.699 234.861 121.893 234.861 121.366C234.861 120.9 234.871 120.642 234.871 120.311V120.269C234.871 120.052 234.871 119.794 234.861 119.504V119.494C234.861 119.494 234.861 119.494 234.861 119.484C234.851 119.132 234.84 118.811 234.83 118.512V118.491C234.632 113.331 233.955 108.833 232.789 104.976C231.623 101.119 229.947 97.8926 227.729 95.3385C225.282 92.5155 222.065 90.4164 218.171 89.0308C214.287 87.6555 209.727 86.9937 204.5 86.9833H199.565C197.16 86.9833 194.89 87.1384 192.776 87.4383H192.766C189.299 87.9243 186.206 88.8136 183.499 90.1372C180.792 91.4608 178.46 93.229 176.575 95.4005C174.097 98.2441 172.285 101.915 171.099 106.361C169.912 110.808 169.329 116.04 169.329 122.058C169.329 128.066 169.901 133.298 171.078 137.755C172.254 142.202 174.035 145.893 176.482 148.778C178.356 150.97 180.667 152.749 183.395 154.083C183.499 154.124 183.603 154.166 183.707 154.217H181.375C176.482 154.217 172.306 153.566 168.87 152.315C165.434 151.063 162.727 149.223 160.645 146.782C158.667 144.456 157.063 141.343 155.949 137.455C154.835 133.567 154.19 128.893 154.085 123.485C154.075 122.948 154.075 122.42 154.075 121.893C154.075 121.355 154.085 120.817 154.085 120.29C154.2 112.131 155.262 105.048 157.219 99.0404C159.177 93.0325 162.03 88.1001 165.757 84.1811C169.047 80.7273 172.941 78.0181 177.481 76.0224C182.021 74.0267 187.216 72.7548 193.078 72.2274C195.16 72.0413 197.326 71.9482 199.575 71.9482H204.51C211.976 71.9482 218.514 72.9823 224.126 75.0297C229.749 77.0771 234.455 80.1172 238.328 84.1811C240.244 86.2078 241.941 88.4931 243.399 91.0678C244.857 93.6426 246.085 96.4863 247.064 99.6194C249.021 105.896 250.021 113.31 250.021 121.883C250.021 130.496 249.021 137.972 247.064 144.29C245.106 150.619 242.191 155.799 238.339 159.894C234.465 164.01 229.759 167.091 224.137 169.159" fill="#6461DA"/>
</svg>
