<svg width="315" height="204" viewBox="0 0 315 204" fill="none" xmlns="http://www.w3.org/2000/svg">
<rect width="315" height="204" rx="48" fill="#33D664" fill-opacity="0.1"/>
<path d="M167.816 111.808C165.754 116.384 162.307 120.197 158.004 122.702C154.463 124.772 150.355 125.947 145.958 125.947C142.465 125.947 139.142 125.2 136.146 123.846C127.999 120.197 122.28 112.127 122.008 102.696C122 102.463 122 102.237 122 102.004C122 101.771 122 101.537 122.008 101.311C122.272 91.8805 127.999 83.8114 136.138 80.1542C134.792 83.15 134.045 86.4648 134.045 89.9586C134.045 94.3472 135.228 98.4635 137.29 102.004C139.796 106.307 143.608 109.754 148.184 111.808C151.18 113.155 154.494 113.902 157.996 113.902C161.497 113.902 164.82 113.155 167.816 111.808Z" fill="url(#paint0_linear_1_1054)"/>
<path d="M193.999 102.004C193.999 102.237 193.999 102.471 193.991 102.697C193.727 112.127 188 120.197 179.868 123.854C181.215 120.858 181.962 117.535 181.962 114.042C181.962 109.653 180.779 105.537 178.717 101.996C176.211 97.6932 172.398 94.2383 167.823 92.1841C164.827 90.8379 161.513 90.0909 158.011 90.0909C154.509 90.0909 151.195 90.8379 148.199 92.1841C150.253 87.6087 153.708 83.8037 158.003 81.2903C161.544 79.2205 165.652 78.0455 170.049 78.0455C173.55 78.0455 176.873 78.7925 179.868 80.1465C188 83.8037 193.727 91.8728 193.991 101.304C193.991 101.537 193.999 101.771 193.999 102.004Z" fill="url(#paint1_linear_1_1054)"/>
<path d="M179.861 80.1463C176.866 78.8002 173.543 78.0454 170.041 78.0454C165.653 78.0454 161.537 79.2281 157.996 81.2902C153.693 83.7957 150.246 87.6086 148.192 92.1839C146.846 95.1797 146.091 98.5023 146.091 101.996C146.091 105.49 146.838 108.813 148.184 111.801C143.609 109.746 139.804 106.291 137.29 101.996C135.22 98.4556 134.046 94.3471 134.046 89.9507C134.046 86.4569 134.793 83.1343 136.139 80.1463C139.796 72.0071 147.873 66.2801 157.304 66.0078C157.537 66 157.77 66 158.004 66C158.237 66 158.471 66 158.696 66.0078C168.135 66.2801 176.204 72.0071 179.861 80.1463Z" fill="url(#paint2_linear_1_1054)"/>
<path d="M157.303 137.984C147.872 137.72 139.795 131.993 136.138 123.854C139.134 125.2 142.448 125.955 145.95 125.955C150.338 125.955 154.455 124.772 157.995 122.71C162.298 120.204 165.753 116.391 167.807 111.816C169.153 108.82 169.9 105.505 169.9 102.012C169.9 98.5178 169.153 95.1875 167.807 92.1995C172.383 94.2537 176.195 97.7086 178.701 102.012C180.771 105.552 181.946 109.661 181.946 114.057C181.946 117.551 181.199 120.873 179.853 123.869C176.195 132.008 168.119 137.735 158.688 138" fill="url(#paint3_linear_1_1054)"/>
<defs>
<linearGradient id="paint0_linear_1_1054" x1="129.531" y1="93.5337" x2="153.464" y2="121.274" gradientUnits="userSpaceOnUse">
<stop stop-color="#93D8DE"/>
<stop offset="1" stop-color="#65C8D0"/>
</linearGradient>
<linearGradient id="paint1_linear_1_1054" x1="187.069" y1="107.885" x2="168.575" y2="90.4792" gradientUnits="userSpaceOnUse">
<stop stop-color="#93D8DE"/>
<stop offset="1" stop-color="#65C8D0"/>
</linearGradient>
<linearGradient id="paint2_linear_1_1054" x1="134.047" y1="88.9043" x2="179.862" y2="88.9043" gradientUnits="userSpaceOnUse">
<stop stop-color="#221ECA"/>
<stop offset="1" stop-color="#6461DA"/>
</linearGradient>
<linearGradient id="paint3_linear_1_1054" x1="175.657" y1="94.8737" x2="152.268" y2="133.493" gradientUnits="userSpaceOnUse">
<stop stop-color="#221ECA"/>
<stop offset="1" stop-color="#6461DA"/>
</linearGradient>
</defs>
</svg>
