<svg width="270" height="181" viewBox="0 0 270 181" fill="none" xmlns="http://www.w3.org/2000/svg">
<rect y="0.951172" width="269.284" height="179.773" rx="54" fill="#FFBA00" fill-opacity="0.1"/>
<path d="M127.191 81.2676L131.557 85.6021C133.054 87.0925 135.475 87.0925 136.972 85.6021L140.557 82.0421L141.312 81.2416L162.293 60.2589C163.086 59.4649 162.527 58.1177 161.407 58.1177H154.034C151.666 58.1177 149.388 59.0614 147.716 60.734L134.265 74.1931L129.82 69.748C128.18 68.1079 125.954 67.1837 123.638 67.1837H113.161L127.217 81.2416L127.191 81.2676Z" fill="#FF0C5D"/>
<path d="M114.568 123.558C116.891 123.558 119.117 122.634 120.757 120.994L134.266 107.483L138.652 111.869C140.331 113.548 142.609 114.492 144.984 114.492H155.37L141.314 100.434L141.34 100.408L136.98 96.0737C135.477 94.5833 133.056 94.5833 131.559 96.0737L127.973 99.6338L127.218 100.434L106.225 121.423C105.438 122.211 105.997 123.558 107.11 123.558" fill="#FFC005"/>
<path d="M117.619 90.8411L113.207 95.2537C111.548 96.9133 110.611 99.1717 110.611 101.521V111.947L124.667 97.8896L124.693 97.9156L129.04 93.5355C130.53 92.0321 130.53 89.6046 129.027 88.1076L103.667 62.784C102.88 62.003 101.546 62.5562 101.546 63.6626V71.0755C101.546 73.4575 102.47 75.6899 104.155 77.3755L117.619 90.8411Z" fill="#221ECA"/>
<path d="M164.409 104.333L150.984 90.8413L155.441 86.3636C157.055 84.743 157.96 82.5432 157.96 80.2588V69.7219L143.962 83.7863L143.936 83.7603L139.654 88.0948C138.177 89.5852 138.17 91.9867 139.635 93.4901L143.943 97.9158L143.969 97.8897L164.91 118.931C165.678 119.699 166.986 119.159 166.986 118.072V110.568C166.979 108.212 166.068 105.999 164.409 104.333Z" fill="#221ECA"/>
</svg>
