<svg width="238" height="154" viewBox="0 0 238 154" fill="none" xmlns="http://www.w3.org/2000/svg">
<rect x="0.406738" y="0.192749" width="236.94" height="153.447" rx="48" fill="#33D664" fill-opacity="0.1"/>
<path d="M126.636 84.2938C125.085 87.7354 122.492 90.6034 119.256 92.488C116.592 94.0449 113.502 94.9287 110.195 94.9287C107.567 94.9287 105.068 94.3668 102.815 93.3484C96.6866 90.6034 92.3847 84.5338 92.1798 77.44C92.174 77.2644 92.174 77.0947 92.174 76.9191C92.174 76.7435 92.174 76.5679 92.1798 76.3982C92.3788 69.3043 96.6866 63.2348 102.809 60.4839C101.796 62.7373 101.234 65.2307 101.234 67.8587C101.234 71.1597 102.124 74.256 103.675 76.9191C105.56 80.1558 108.428 82.7487 111.869 84.2938C114.123 85.3064 116.616 85.8683 119.25 85.8683C121.884 85.8683 124.383 85.3064 126.636 84.2938Z" fill="url(#paint0_linear_1_1054)"/>
<path d="M146.331 76.9192C146.331 77.0948 146.331 77.2704 146.325 77.4401C146.126 84.5339 141.818 90.6035 135.702 93.3544C136.715 91.101 137.276 88.6018 137.276 85.9738C137.276 82.6727 136.387 79.5764 134.836 76.9133C132.951 73.6766 130.083 71.0779 126.642 69.5327C124.388 68.5201 121.895 67.9583 119.261 67.9583C116.627 67.9583 114.134 68.5201 111.88 69.5327C113.426 66.0912 116.024 63.229 119.255 61.3385C121.918 59.7816 125.009 58.8978 128.316 58.8978C130.949 58.8978 133.449 59.4597 135.702 60.4781C141.818 63.229 146.126 69.2986 146.325 76.3924C146.325 76.568 146.331 76.7436 146.331 76.9192Z" fill="url(#paint1_linear_1_1054)"/>
<path d="M135.697 60.478C133.443 59.4654 130.944 58.8977 128.31 58.8977C125.009 58.8977 121.913 59.7874 119.25 61.3384C116.013 63.2231 113.42 66.091 111.875 69.5326C110.863 71.786 110.295 74.2852 110.295 76.9132C110.295 79.5412 110.857 82.0404 111.869 84.288C108.428 82.7428 105.566 80.1441 103.675 76.9132C102.118 74.2501 101.234 71.1597 101.234 67.8528C101.234 65.2248 101.796 62.7256 102.809 60.478C105.56 54.3558 111.635 50.048 118.729 49.8431C118.905 49.8373 119.08 49.8373 119.256 49.8373C119.431 49.8373 119.607 49.8373 119.777 49.8431C126.876 50.048 132.946 54.3558 135.697 60.478Z" fill="url(#paint2_linear_1_1054)"/>
<path d="M118.728 103.983C111.634 103.784 105.559 99.4765 102.808 93.3543C105.062 94.3668 107.555 94.9346 110.189 94.9346C113.49 94.9346 116.586 94.0449 119.249 92.4939C122.486 90.6092 125.085 87.7413 126.63 84.2997C127.642 82.0463 128.204 79.5529 128.204 76.9249C128.204 74.2969 127.642 71.7919 126.63 69.5443C130.071 71.0895 132.939 73.6882 134.824 76.9249C136.381 79.588 137.265 82.6784 137.265 85.9854C137.265 88.6133 136.703 91.1126 135.69 93.366C132.939 99.4882 126.864 103.796 119.77 103.995" fill="url(#paint3_linear_1_1054)"/>
<defs>
<linearGradient id="paint0_linear_1_1054" x1="97.8384" y1="70.5479" x2="115.841" y2="91.4139" gradientUnits="userSpaceOnUse">
<stop stop-color="#93D8DE"/>
<stop offset="1" stop-color="#65C8D0"/>
</linearGradient>
<linearGradient id="paint1_linear_1_1054" x1="141.118" y1="81.3427" x2="127.207" y2="68.2503" gradientUnits="userSpaceOnUse">
<stop stop-color="#93D8DE"/>
<stop offset="1" stop-color="#65C8D0"/>
</linearGradient>
<linearGradient id="paint2_linear_1_1054" x1="101.236" y1="67.0657" x2="135.697" y2="67.0657" gradientUnits="userSpaceOnUse">
<stop stop-color="#221ECA"/>
<stop offset="1" stop-color="#6461DA"/>
</linearGradient>
<linearGradient id="paint3_linear_1_1054" x1="132.534" y1="71.5559" x2="114.941" y2="100.605" gradientUnits="userSpaceOnUse">
<stop stop-color="#221ECA"/>
<stop offset="1" stop-color="#6461DA"/>
</linearGradient>
</defs>
</svg>
