<svg width="182" height="115" viewBox="0 0 182 115" fill="none" xmlns="http://www.w3.org/2000/svg">
<rect x="0.758423" width="180.526" height="114.333" rx="40" fill="#F35325" fill-opacity="0.1"/>
<path d="M73.528 55.8196C73.5241 55.8235 73.5162 55.8235 73.5123 55.8235V55.8274C73.5123 55.8314 73.5162 55.8314 73.5162 55.8314C73.646 55.8589 73.7758 55.8864 73.9055 55.91C73.7758 55.8786 73.6538 55.8471 73.528 55.8196ZM73.528 55.8196C73.5241 55.8235 73.5162 55.8235 73.5123 55.8235V55.8274C73.5123 55.8314 73.5162 55.8314 73.5162 55.8314C73.646 55.8589 73.7758 55.8864 73.9055 55.91C73.7758 55.8786 73.6538 55.8471 73.528 55.8196ZM73.528 55.8196C73.5241 55.8235 73.5162 55.8235 73.5123 55.8235V55.8274C73.5123 55.8314 73.5162 55.8314 73.5162 55.8314C73.646 55.8589 73.7758 55.8864 73.9055 55.91C73.7758 55.8786 73.6538 55.8471 73.528 55.8196ZM73.528 55.8196C73.5241 55.8235 73.5162 55.8235 73.5123 55.8235V55.8274C73.5123 55.8314 73.5162 55.8314 73.5162 55.8314C73.646 55.8589 73.7758 55.8864 73.9055 55.91C73.7758 55.8786 73.6538 55.8471 73.528 55.8196ZM73.528 55.8196C73.5241 55.8235 73.5162 55.8235 73.5123 55.8235V55.8274C73.5123 55.8314 73.5162 55.8314 73.5162 55.8314C73.646 55.8589 73.7758 55.8864 73.9055 55.91C73.7758 55.8786 73.6538 55.8471 73.528 55.8196Z" fill="#FFC005"/>
<path d="M90.2158 44.7257C90.2158 46.4678 90.031 48.1588 89.6809 49.7673C89.3348 51.3718 88.8235 52.8976 88.1785 54.3212C86.7665 54.9622 85.2523 55.4695 83.6634 55.8156C82.0391 56.1695 80.3361 56.3583 78.578 56.3583C76.9733 56.3583 75.408 56.201 73.9095 55.9021C73.9056 55.9021 73.9016 55.8982 73.9016 55.8982C73.7758 55.8707 73.6539 55.8392 73.528 55.8117C73.6539 55.7841 73.7758 55.7566 73.9016 55.7251C73.7718 55.7487 73.6421 55.7763 73.5123 55.8038C74.4287 51.592 76.4581 47.919 79.2033 45.2723C81.8463 42.5588 85.4962 40.5532 89.677 39.6448V39.6487C89.6809 39.6566 89.6809 39.6644 89.6809 39.6723C90.031 41.2925 90.2158 42.9835 90.2158 44.7257Z" fill="#FF733B"/>
<path d="M73.9011 55.906C73.7714 55.8824 73.6416 55.8549 73.5118 55.8273C73.5118 55.8273 73.5079 55.8273 73.5079 55.8234V55.8195C73.5118 55.8195 73.5197 55.8195 73.5236 55.8156C73.6534 55.847 73.7753 55.8785 73.9011 55.906Z" fill="#FFC005"/>
<path d="M89.6767 39.6527C88.0563 39.3027 86.3612 39.1139 84.611 39.1139C81.1342 39.1139 77.862 39.8532 75.0105 41.151C73.7126 44.0021 72.9732 47.274 72.9732 50.7504C72.9732 52.5004 73.162 54.1993 73.512 55.8156C73.512 55.8117 73.516 55.8117 73.516 55.8117C74.4324 51.5999 76.4618 47.9268 79.207 45.2802C81.85 42.5667 85.4999 40.5611 89.6807 39.6527H89.6767Z" fill="#7188FF"/>
<path d="M92.2635 39.6683C92.2596 39.6644 92.2596 39.6565 92.2596 39.6526H92.2557C92.2518 39.6526 92.2518 39.6565 92.2518 39.6565C92.2242 39.7863 92.1967 39.9161 92.1731 40.0458C92.2085 39.92 92.236 39.7942 92.2635 39.6683ZM92.2635 39.6683C92.2596 39.6644 92.2596 39.6565 92.2596 39.6526H92.2557C92.2518 39.6526 92.2518 39.6565 92.2518 39.6565C92.2242 39.7863 92.1967 39.9161 92.1731 40.0458C92.2085 39.92 92.236 39.7942 92.2635 39.6683ZM92.2635 39.6683C92.2596 39.6644 92.2596 39.6565 92.2596 39.6526H92.2557C92.2518 39.6526 92.2518 39.6565 92.2518 39.6565C92.2242 39.7863 92.1967 39.9161 92.1731 40.0458C92.2085 39.92 92.236 39.7942 92.2635 39.6683ZM92.2635 39.6683C92.2596 39.6644 92.2596 39.6565 92.2596 39.6526H92.2557C92.2518 39.6526 92.2518 39.6565 92.2518 39.6565C92.2242 39.7863 92.1967 39.9161 92.1731 40.0458C92.2085 39.92 92.236 39.7942 92.2635 39.6683ZM92.2635 39.6683C92.2596 39.6644 92.2596 39.6565 92.2596 39.6526H92.2557C92.2518 39.6526 92.2518 39.6565 92.2518 39.6565C92.2242 39.7863 92.1967 39.9161 92.1731 40.0458C92.2085 39.92 92.236 39.7942 92.2635 39.6683Z" fill="#FFC005"/>
<path d="M103.362 56.3622C101.62 56.3622 99.9288 56.1773 98.3163 55.8273C96.7077 55.4813 95.1816 54.97 93.7579 54.3212C93.1168 52.9094 92.6094 51.3953 92.2633 49.8026C91.9094 48.1784 91.7206 46.4717 91.7206 44.7178C91.7206 43.1093 91.8779 41.5481 92.1768 40.0498C92.1768 40.0458 92.1807 40.0419 92.1807 40.0419C92.2083 39.9161 92.2397 39.7942 92.2673 39.6683C92.2948 39.7942 92.3223 39.9161 92.3538 40.0419C92.3302 39.9121 92.3027 39.7824 92.2751 39.6526C96.4913 40.5689 100.165 42.602 102.812 45.343C105.525 47.9897 107.531 51.6352 108.44 55.8195H108.436C108.428 55.8234 108.42 55.8234 108.412 55.8234C106.8 56.1773 105.109 56.3622 103.362 56.3622Z" fill="#FF733B"/>
<path d="M92.1804 40.0421C92.204 39.9123 92.2315 39.7825 92.2591 39.6527C92.2591 39.6527 92.2591 39.6488 92.263 39.6488H92.2669C92.2669 39.6527 92.2669 39.6606 92.2709 39.6645C92.2355 39.7943 92.2079 39.9202 92.1804 40.0421Z" fill="#FFC005"/>
<path d="M108.444 55.8235C108.794 54.2072 108.982 52.5083 108.982 50.7583C108.982 47.278 108.243 44.006 106.941 41.1549C104.086 39.8532 100.817 39.1139 97.3368 39.1139C95.5866 39.1139 93.8875 39.3027 92.2671 39.6527C92.271 39.6527 92.271 39.6566 92.271 39.6566C96.4872 40.5729 100.161 42.606 102.808 45.3471C105.521 47.9937 107.527 51.6392 108.436 55.8235H108.444C108.444 55.8235 108.44 55.8235 108.444 55.8235Z" fill="#7188FF"/>
<path d="M108.419 58.4093C108.423 58.4054 108.43 58.4054 108.434 58.4054V58.4014C108.434 58.3975 108.43 58.3975 108.43 58.3975C108.301 58.37 108.171 58.3424 108.041 58.3188C108.171 58.3542 108.297 58.3818 108.419 58.4093ZM108.419 58.4093C108.423 58.4054 108.43 58.4054 108.434 58.4054V58.4014C108.434 58.3975 108.43 58.3975 108.43 58.3975C108.301 58.37 108.171 58.3424 108.041 58.3188C108.171 58.3542 108.297 58.3818 108.419 58.4093ZM108.419 58.4093C108.423 58.4054 108.43 58.4054 108.434 58.4054V58.4014C108.434 58.3975 108.43 58.3975 108.43 58.3975C108.301 58.37 108.171 58.3424 108.041 58.3188C108.171 58.3542 108.297 58.3818 108.419 58.4093ZM108.419 58.4093C108.423 58.4054 108.43 58.4054 108.434 58.4054V58.4014C108.434 58.3975 108.43 58.3975 108.43 58.3975C108.301 58.37 108.171 58.3424 108.041 58.3188C108.171 58.3542 108.297 58.3818 108.419 58.4093ZM108.419 58.4093C108.423 58.4054 108.43 58.4054 108.434 58.4054V58.4014C108.434 58.3975 108.43 58.3975 108.43 58.3975C108.301 58.37 108.171 58.3424 108.041 58.3188C108.171 58.3542 108.297 58.3818 108.419 58.4093Z" fill="#FFC005"/>
<path d="M91.7308 69.5031C91.7308 67.761 91.9157 66.0699 92.2657 64.4615C92.6118 62.857 93.1231 61.3312 93.7681 59.9076C95.1801 59.2666 96.6943 58.7592 98.2832 58.4132C99.9076 58.0592 101.611 57.8705 103.369 57.8705C104.973 57.8705 106.539 58.0278 108.037 58.3267C108.041 58.3267 108.045 58.3306 108.045 58.3306C108.171 58.3581 108.293 58.3896 108.419 58.4171C108.293 58.4446 108.171 58.4722 108.045 58.5036C108.175 58.48 108.305 58.4525 108.434 58.425C107.518 62.6368 105.489 66.3098 102.743 68.9565C100.1 71.6699 96.4505 73.6756 92.2697 74.584V74.5801C92.2657 74.5722 92.2657 74.5643 92.2657 74.5565C91.9157 72.9402 91.7308 71.2452 91.7308 69.5031Z" fill="#FF733B"/>
<path d="M108.045 58.3267C108.175 58.3503 108.305 58.3778 108.435 58.4053C108.435 58.4053 108.439 58.4053 108.439 58.4092V58.4132C108.435 58.4132 108.427 58.4132 108.423 58.4171C108.297 58.3817 108.171 58.3542 108.045 58.3267Z" fill="#FFC005"/>
<path d="M92.274 74.5802C93.8904 74.9302 95.5895 75.119 97.3397 75.119C100.816 75.119 104.089 74.3796 106.94 73.0819C108.238 70.2307 108.977 66.9588 108.977 63.4824C108.977 61.7324 108.789 60.0335 108.439 58.4172C108.439 58.4212 108.435 58.4212 108.435 58.4212C107.518 62.633 105.489 66.306 102.744 68.9527C100.101 71.6661 96.4508 73.6718 92.27 74.5802H92.274C92.274 74.5802 92.274 74.5763 92.274 74.5802Z" fill="#7188FF"/>
<path d="M89.6844 74.5605C89.6883 74.5644 89.6883 74.5723 89.6883 74.5762H89.6923C89.6962 74.5762 89.6962 74.5723 89.6962 74.5723C89.7237 74.4425 89.7512 74.3128 89.7748 74.183C89.7394 74.3128 89.7119 74.4386 89.6844 74.5605ZM89.6844 74.5605C89.6883 74.5644 89.6883 74.5723 89.6883 74.5762H89.6923C89.6962 74.5762 89.6962 74.5723 89.6962 74.5723C89.7237 74.4425 89.7512 74.3128 89.7748 74.183C89.7394 74.3128 89.7119 74.4386 89.6844 74.5605ZM89.6844 74.5605C89.6883 74.5644 89.6883 74.5723 89.6883 74.5762H89.6923C89.6962 74.5762 89.6962 74.5723 89.6962 74.5723C89.7237 74.4425 89.7512 74.3128 89.7748 74.183C89.7394 74.3128 89.7119 74.4386 89.6844 74.5605ZM89.6844 74.5605C89.6883 74.5644 89.6883 74.5723 89.6883 74.5762H89.6923C89.6962 74.5762 89.6962 74.5723 89.6962 74.5723C89.7237 74.4425 89.7512 74.3128 89.7748 74.183C89.7394 74.3128 89.7119 74.4386 89.6844 74.5605ZM89.6844 74.5605C89.6883 74.5644 89.6883 74.5723 89.6883 74.5762H89.6923C89.6962 74.5762 89.6962 74.5723 89.6962 74.5723C89.7237 74.4425 89.7512 74.3128 89.7748 74.183C89.7394 74.3128 89.7119 74.4386 89.6844 74.5605Z" fill="#FFC005"/>
<path d="M78.5854 57.8667C80.3277 57.8667 82.0189 58.0515 83.6315 58.4015C85.2401 58.7476 86.7661 59.2588 88.1898 59.9077C88.8309 61.3195 89.3383 62.8336 89.6844 64.4263C90.0384 66.0504 90.2271 67.7572 90.2271 69.5111C90.2271 71.1195 90.0698 72.6808 89.7709 74.1791C89.7709 74.183 89.767 74.187 89.767 74.187C89.7394 74.3128 89.708 74.4347 89.6805 74.5606C89.6529 74.4347 89.6254 74.3128 89.5939 74.187C89.6175 74.3167 89.6451 74.4465 89.6726 74.5763C85.4564 73.66 81.7829 71.6268 79.136 68.8858C76.4222 66.2392 74.4164 62.5937 73.5079 58.4094H73.5118C73.5197 58.4055 73.5275 58.4055 73.5354 58.4055C75.1479 58.0515 76.8431 57.8667 78.5854 57.8667Z" fill="#FF733B"/>
<path d="M89.7704 74.187C89.7468 74.3168 89.7193 74.4466 89.6918 74.5763C89.6918 74.5763 89.6918 74.5803 89.6879 74.5803H89.6839C89.6839 74.5763 89.6839 74.5685 89.68 74.5645C89.7115 74.4387 89.739 74.3129 89.7704 74.187Z" fill="#FFC005"/>
<path d="M73.5075 58.4093C73.1575 60.0256 72.9687 61.7245 72.9687 63.4745C72.9687 66.9548 73.7081 70.2267 75.0099 73.0779C77.8614 74.3756 81.1336 75.1189 84.6144 75.1189C86.3646 75.1189 88.0636 74.9301 89.684 74.5801C89.6801 74.5801 89.6801 74.5762 89.6801 74.5762C85.4639 73.6599 81.7905 71.6267 79.1435 68.8857C76.4297 66.2391 74.4239 62.5936 73.5154 58.4093H73.5075Z" fill="#7188FF"/>
</svg>
