<svg width="240" height="152" viewBox="0 0 240 152" fill="none" xmlns="http://www.w3.org/2000/svg">
<rect width="240" height="152" rx="48" fill="#1C60BF" fill-opacity="0.1"/>
<path d="M115.256 86.4347L114.753 85.1557C114.053 83.3687 112.636 81.9515 110.849 81.2519L109.57 80.7483L109.039 80.5433L106.045 79.3713V79.3668L105.403 79.1173L102.346 77.9185L99.8325 76.9336C99.4225 76.7554 99.2175 76.4523 99.2175 76.029C99.2175 76.0156 99.2175 76.0111 99.222 76.0022C99.2175 75.9933 99.2175 75.9844 99.2175 75.9755C99.2175 75.5477 99.4225 75.2446 99.8325 75.0708L102.346 74.0815L105.403 72.8827L106.045 72.6332L104.81 69.8034L104.761 69.6875L101.811 70.8462L98.3173 72.2187C97.4662 72.5574 96.8645 73.0343 96.5214 73.6448C96.1738 74.2553 96 75.0441 96 76.0022C96 76.9604 96.1738 77.7447 96.5214 78.3597C96.8645 78.9702 97.4662 79.447 98.3173 79.7813L101.816 81.1538L104.766 82.3125L104.882 82.3571L107.756 83.4846L108.745 81.2162L107.756 83.4846L108.371 83.7252C110.158 84.4293 111.571 85.842 112.275 87.629L112.515 88.244L115.461 86.9606L115.256 86.4347Z" fill="url(#paint0_linear_1_1031)"/>
<path d="M138.006 88.6585L136.509 85.2137L135.243 82.3125L135.221 82.3215L135.243 82.3125L135.194 82.1967L133.96 79.3669L132.658 79.8793L133.964 79.3669L133.697 78.7608C132.93 77.0005 132.93 74.9996 133.697 73.2393L133.964 72.6332L130.969 71.4612L130.742 71.9781L130.194 73.2348C129.423 74.9996 129.423 77.005 130.194 78.7652L130.742 80.0219L130.969 80.5433L132.257 83.489L133.603 82.9587L132.257 83.489L132.529 84.1174L133.848 87.1299L134.927 89.6032C135.087 90.0132 135.02 90.3742 134.717 90.6772L134.699 90.6951C134.695 90.6995 134.691 90.7084 134.682 90.7129C134.379 91.0159 134.022 91.0828 133.608 90.9223L131.134 89.8394L128.122 88.5248L127.493 88.2485L126.366 91.1229L126.317 91.2387L129.223 92.5044L132.667 94.0062C133.505 94.3716 134.267 94.4607 134.945 94.2691C135.622 94.0819 136.299 93.6497 136.977 92.9723C137.654 92.2949 138.091 91.6175 138.278 90.9402C138.461 90.2628 138.372 89.5007 138.006 88.6585Z" fill="url(#paint1_linear_1_1031)"/>
<path d="M125.154 57.8156L123.781 54.3173C123.447 53.4662 122.97 52.8645 122.36 52.5214C121.745 52.1738 120.96 52 120.002 52C119.044 52 118.26 52.1738 117.645 52.5214C117.034 52.8645 116.557 53.4662 116.223 54.3173L114.846 57.8156L113.692 60.7613L113.808 60.8103L115.684 61.6303L113.808 60.8103L113.692 60.7613L113.647 60.8772L112.52 63.7516L112.279 64.3665C111.575 66.1536 110.162 67.5662 108.375 68.2704L107.756 68.5155L109.044 71.4611L109.574 71.2517L110.849 70.7526C112.64 70.0529 114.057 68.6358 114.757 66.8443L115.261 65.5653L115.466 65.0395L114.65 64.6829L115.466 65.0395L116.638 62.0447L116.892 61.4075L118.09 58.3459L119.075 55.8325C119.254 55.427 119.552 55.222 119.98 55.222H120.033C120.461 55.222 120.76 55.427 120.938 55.8325L121.923 58.3459L123.126 61.4075L123.376 62.0447L126.206 60.8148L126.317 60.7613L125.154 57.8156Z" fill="url(#paint2_linear_1_1031)"/>
<path d="M138.273 61.0643C138.086 60.3869 137.65 59.7095 136.972 59.0322C136.295 58.3503 135.617 57.9181 134.94 57.7309C134.263 57.5437 133.501 57.6328 132.663 57.9938L129.218 59.4956L126.312 60.7612V60.7657L126.201 60.8147L123.371 62.0447L122.761 62.3121C121.005 63.0786 119.004 63.0786 117.244 62.3121L116.633 62.0447L115.461 65.0394L115.983 65.2667L117.239 65.8148C119 66.5858 121.005 66.5858 122.765 65.8148L124.026 65.2667L124.543 65.0394L124.338 64.5135L124.543 65.0394L127.489 63.7515L126.362 60.8771L126.335 60.8147L126.362 60.8816L127.489 63.7515L128.117 63.4797L131.13 62.1606L133.603 61.0821C134.018 60.9217 134.374 60.9885 134.677 61.2916C134.682 61.296 134.691 61.3005 134.695 61.3094C134.699 61.3138 134.708 61.3183 134.713 61.3272C135.016 61.6302 135.083 61.9868 134.922 62.4012L133.844 64.8745L132.525 67.887L132.253 68.5154L135.123 69.6429L135.243 69.6874L136.504 66.7863L138.011 63.3415C138.372 62.4992 138.461 61.7417 138.273 61.0643Z" fill="url(#paint3_linear_1_1031)"/>
<path d="M143.483 73.6448C143.14 73.0343 142.538 72.5575 141.687 72.2188L138.189 70.8462L135.243 69.6875L135.208 69.7588L135.239 69.6875L135.123 69.643L132.253 68.5155L131.633 68.2704C129.846 67.5663 128.434 66.1536 127.73 64.3666L127.489 63.7516L124.543 65.0395L124.748 65.5653L125.252 66.8443C125.952 68.6358 127.369 70.053 129.16 70.7526L130.435 71.2517L130.965 71.4612L133.96 72.6332L134.699 70.9398L133.964 72.6332L134.601 72.8828L137.659 74.0815L140.176 75.0709C140.582 75.2447 140.787 75.5477 140.787 75.9755C140.787 75.9844 140.787 75.9933 140.782 76.0023C140.787 76.0112 140.787 76.0156 140.787 76.029C140.787 76.4524 140.582 76.7554 140.176 76.9336L137.659 77.9185L134.601 79.1173L133.964 79.3668L135.199 82.1967L135.248 82.3125L138.193 81.1539L141.692 79.7813C142.543 79.4471 143.144 78.9702 143.488 78.3597C143.835 77.7447 144.009 76.9604 144.009 76.0023C144.004 75.0441 143.831 74.2553 143.483 73.6448Z" fill="url(#paint4_linear_1_1031)"/>
<path d="M124.022 86.7378L122.765 86.1852C121 85.4187 119 85.4187 117.239 86.1852L115.983 86.7378L115.461 86.9651L112.515 88.253L111.887 88.5293L108.875 89.8439L106.401 90.9223C105.987 91.0872 105.63 91.0204 105.327 90.7173C105.323 90.7129 105.314 90.704 105.309 90.6995C105.305 90.6951 105.296 90.6862 105.292 90.6817C104.989 90.3787 104.922 90.0177 105.082 89.6077L106.165 87.1344L107.48 84.1174L107.756 83.4935L104.882 82.3616L104.766 82.317L103.496 85.2181L101.998 88.6629C101.633 89.5052 101.544 90.2628 101.731 90.9446C101.923 91.622 102.355 92.2994 103.032 92.9767C103.71 93.6541 104.387 94.0864 105.064 94.2736C105.742 94.4652 106.504 94.3761 107.342 94.0106L110.786 92.5088L113.692 91.2432L113.808 91.1942L116.638 89.9598L115.929 88.1549L116.638 89.9598L117.244 89.6968C119.004 88.9303 121 88.9303 122.761 89.6968L123.371 89.9598L124.543 86.9695L124.022 86.7378Z" fill="url(#paint5_linear_1_1031)"/>
<path d="M110.786 59.4956L107.342 57.9938C106.504 57.6328 105.742 57.5437 105.064 57.7309C104.387 57.9181 103.71 58.3503 103.032 59.0322C102.355 59.7095 101.923 60.3869 101.731 61.0643C101.544 61.7417 101.633 62.4992 101.994 63.3415L103.5 66.7863L104.766 69.6874L104.815 69.8033L106.049 72.6331L107.498 72.0672L106.054 72.6331L106.317 73.2437C107.083 75.0039 107.083 77.0004 106.317 78.7607L106.054 79.3668L109.044 80.5433L109.271 80.0219L109.815 78.7651C110.586 77.0049 110.586 75.0039 109.819 73.2392L109.267 71.9825L109.039 71.4611L107.752 68.5154L107.48 67.887L106.165 64.8745L105.082 62.4012C104.922 61.9868 104.989 61.6302 105.292 61.3272C105.296 61.3183 105.305 61.3138 105.309 61.3094C105.314 61.3005 105.323 61.296 105.327 61.2916C105.63 60.9885 105.987 60.9217 106.401 61.0821L108.875 62.1606L111.887 63.4797L112.515 63.7515L113.647 60.8816L113.692 60.7612L110.786 59.4956Z" fill="url(#paint6_linear_1_1031)"/>
<path d="M130.965 80.5433L130.435 80.7483L129.156 81.2519C127.369 81.9516 125.952 83.3687 125.252 85.1557L124.748 86.4347L124.543 86.965L123.371 89.9597L123.122 90.597L121.918 93.6586L120.934 96.172C120.755 96.5775 120.457 96.7869 120.029 96.7869C120.02 96.7869 120.011 96.7869 120.002 96.7825C119.993 96.7869 119.984 96.7869 119.975 96.7869C119.548 96.7869 119.249 96.5775 119.071 96.172L118.086 93.6586L116.887 90.597L116.638 89.9597L113.803 91.1942L113.692 91.2432L114.846 94.1933L116.223 97.6871C116.557 98.5428 117.034 99.1399 117.645 99.4875C118.26 99.8351 119.044 100.004 120.002 100.004C120.96 100.004 121.745 99.8351 122.36 99.4875C122.97 99.1399 123.447 98.5428 123.781 97.6871L125.154 94.1933L126.313 91.2432L126.259 91.2164L126.313 91.2387L126.357 91.1229L127.485 88.2485L125.898 87.5577L127.485 88.2485L127.725 87.6335C128.429 85.8465 129.842 84.4338 131.629 83.7297L132.248 83.489L130.965 80.5433Z" fill="url(#paint7_linear_1_1031)"/>
<defs>
<linearGradient id="paint0_linear_1_1031" x1="111.941" y1="86.9514" x2="98.6494" y2="71.791" gradientUnits="userSpaceOnUse">
<stop stop-color="#221ECA"/>
<stop offset="1" stop-color="#6461DA"/>
</linearGradient>
<linearGradient id="paint1_linear_1_1031" x1="132.423" y1="91.0894" x2="129.931" y2="76.3443" gradientUnits="userSpaceOnUse">
<stop stop-color="#93D8DE"/>
<stop offset="1" stop-color="#65C8D0"/>
</linearGradient>
<linearGradient id="paint2_linear_1_1031" x1="110.75" y1="69.9799" x2="123.73" y2="54.4041" gradientUnits="userSpaceOnUse">
<stop stop-color="#221ECA"/>
<stop offset="1" stop-color="#6461DA"/>
</linearGradient>
<linearGradient id="paint3_linear_1_1031" x1="136.805" y1="60.4327" x2="121.229" y2="68.2206" gradientUnits="userSpaceOnUse">
<stop stop-color="#93D8DE"/>
<stop offset="1" stop-color="#65C8D0"/>
</linearGradient>
<linearGradient id="paint4_linear_1_1031" x1="124.543" y1="73.0321" x2="144.004" y2="73.0321" gradientUnits="userSpaceOnUse">
<stop stop-color="#221ECA"/>
<stop offset="1" stop-color="#6461DA"/>
</linearGradient>
<linearGradient id="paint5_linear_1_1031" x1="107.103" y1="88.5137" x2="119.564" y2="84.2564" gradientUnits="userSpaceOnUse">
<stop stop-color="#93D8DE"/>
<stop offset="1" stop-color="#65C8D0"/>
</linearGradient>
<linearGradient id="paint6_linear_1_1031" x1="107.652" y1="61.4173" x2="111.39" y2="76.6815" gradientUnits="userSpaceOnUse">
<stop stop-color="#93D8DE"/>
<stop offset="1" stop-color="#65C8D0"/>
</linearGradient>
<linearGradient id="paint7_linear_1_1031" x1="128.018" y1="80.2542" x2="116.492" y2="98.0106" gradientUnits="userSpaceOnUse">
<stop stop-color="#221ECA"/>
<stop offset="1" stop-color="#6461DA"/>
</linearGradient>
</defs>
</svg>
