<svg width="290" height="183" viewBox="0 0 290 183" fill="none" xmlns="http://www.w3.org/2000/svg">
<rect x="0.406738" y="0.0187988" width="289.593" height="182.782" rx="54" fill="#4285F4" fill-opacity="0.1"/>
<path d="M122.174 127.329C117.945 125.789 114.405 123.502 111.5 120.445C108.602 117.404 106.409 113.546 104.937 108.833C103.456 104.111 102.705 98.5268 102.705 92.0866C102.705 85.6075 103.456 79.984 104.929 75.2238C106.401 70.4636 108.594 66.5669 111.492 63.4868C114.405 60.3911 117.945 58.0733 122.174 56.5176C125.988 55.1098 130.374 54.332 135.339 54.192C134.525 54.4798 133.726 54.7831 132.959 55.1254C129.278 56.7354 126.075 58.9677 123.396 61.7834C120.318 65.0113 118.008 69.0403 116.449 73.8393C114.891 78.6306 114.076 84.1841 113.982 90.4998C113.975 90.8965 113.975 91.3088 113.975 91.7366C113.975 92.1566 113.982 92.5688 113.982 92.9733V92.981C114.045 96.2556 114.366 99.219 114.93 101.864C115.141 102.898 115.376 103.894 115.658 104.827C116.543 107.728 117.796 110.155 119.465 112.076C121.305 114.199 123.725 115.786 126.654 116.821C128.009 117.295 129.481 117.661 131.048 117.917C131.165 117.933 131.283 117.956 131.392 117.972C131.463 117.98 131.533 117.987 131.596 118.003C133.233 118.236 134.964 118.353 136.82 118.361H140.532C140.986 118.361 141.44 118.353 141.879 118.337C143.234 118.306 144.518 118.19 145.74 118.019H145.748C148.356 117.653 150.682 116.984 152.718 115.988C154.762 114.993 156.509 113.663 157.926 112.029C159.798 109.89 161.153 107.129 162.046 103.785C162.939 100.44 163.377 96.5045 163.377 91.9777C163.377 87.4586 162.946 83.523 162.061 80.1706C161.176 76.8261 159.837 74.0493 158.005 71.8792C156.595 70.2303 154.856 68.8925 152.804 67.8891C152.726 67.858 152.648 67.8269 152.569 67.788H154.222C156.039 67.788 157.723 67.9125 159.273 68.1302C159.312 68.138 159.359 68.138 159.406 68.1458C159.508 68.1614 159.618 68.1847 159.72 68.2002C159.978 68.2391 160.221 68.2858 160.472 68.3325C160.62 68.3636 160.761 68.3869 160.91 68.418C160.949 68.4258 160.988 68.4414 161.035 68.4491L161.122 68.4647C161.2 68.4803 161.27 68.4958 161.333 68.5191C161.474 68.5503 161.615 68.5814 161.748 68.6203C162.116 68.7136 162.476 68.8147 162.829 68.9236C162.899 68.9469 162.962 68.9625 163.033 68.9858C163.267 69.0636 163.502 69.1414 163.73 69.2192C166.314 70.1603 168.35 71.5448 169.917 73.3804C171.405 75.1305 172.603 77.4716 173.441 80.3962C173.629 81.0495 173.801 81.7496 173.95 82.4651C174.349 84.4952 174.608 86.7586 174.702 89.2709C174.71 89.5276 174.717 89.7687 174.725 89.9943V90.0021C174.733 90.1498 174.733 90.3287 174.733 90.531C174.733 90.741 174.725 90.9665 174.725 91.3399C174.725 91.7599 174.733 92.3588 174.733 92.8799V92.981C174.733 93.1833 174.733 93.3699 174.725 93.5255V93.5333C174.717 93.7666 174.71 94.0077 174.702 94.2722C174.522 100.113 173.684 105.208 172.219 109.548C170.755 113.888 168.664 117.474 165.954 120.36C163.479 122.989 160.55 125.05 157.135 126.567" fill="#7188FF" fill-opacity="0.9"/>
<path d="M158.106 128.643C161.787 127.01 164.983 124.754 167.669 121.9C170.637 118.757 172.893 114.853 174.436 110.248C175.994 105.644 176.848 100.331 177.043 94.3189V94.3111C177.051 94.0855 177.059 93.8366 177.067 93.5644C177.067 93.5566 177.067 93.5566 177.067 93.5566C177.075 93.3388 177.075 93.1444 177.075 92.9733V92.8488C177.075 92.3121 177.067 91.7054 177.067 91.3088C177.067 90.9588 177.075 90.7643 177.075 90.5154V90.4843C177.075 90.321 177.075 90.1265 177.067 89.9087V89.9009C177.067 89.9009 177.067 89.9009 177.067 89.8932C177.059 89.6287 177.051 89.3876 177.043 89.162V89.1465C176.895 85.2652 176.386 81.8818 175.508 78.9806C174.631 76.0794 173.37 73.6526 171.702 71.7315C169.862 69.6081 167.442 68.0291 164.513 66.9869C161.591 65.9524 158.161 65.4546 154.23 65.4468H150.517C148.708 65.4468 147.001 65.5635 145.411 65.7891H145.403C142.795 66.1546 140.469 66.8235 138.433 67.8191C136.397 68.8147 134.642 70.1448 133.225 71.7781C131.361 73.9171 129.998 76.6783 129.105 80.0228C128.213 83.3674 127.774 87.3031 127.774 91.8299C127.774 96.3489 128.205 100.285 129.09 103.637C129.975 106.981 131.314 109.758 133.154 111.928C134.564 113.577 136.303 114.915 138.355 115.918C138.433 115.95 138.511 115.981 138.59 116.02H136.835C133.154 116.02 130.014 115.53 127.429 114.588C124.845 113.647 122.809 112.263 121.242 110.427C119.754 108.677 118.548 106.336 117.71 103.411C116.872 100.487 116.387 96.9712 116.308 92.9033C116.301 92.4988 116.301 92.1021 116.301 91.7054C116.301 91.301 116.308 90.8965 116.308 90.4998C116.395 84.363 117.193 79.035 118.666 74.516C120.138 69.997 122.284 66.2869 125.088 63.339C127.563 60.7411 130.492 58.7033 133.906 57.2021C137.321 55.701 141.229 54.7443 145.638 54.3476C147.205 54.2076 148.834 54.1376 150.525 54.1376H154.237C159.853 54.1376 164.771 54.9154 168.992 56.4554C173.222 57.9955 176.762 60.2822 179.675 63.339C181.116 64.8635 182.393 66.5824 183.489 68.5191C184.585 70.4559 185.51 72.5948 186.246 74.9516C187.718 79.6728 188.47 85.2497 188.47 91.6977C188.47 98.1768 187.718 103.8 186.246 108.553C184.773 113.313 182.581 117.21 179.683 120.29C176.769 123.385 173.229 125.703 169 127.259" fill="#6461DA"/>
</svg>
