<svg width="358" height="239" viewBox="0 0 358 239" fill="none" xmlns="http://www.w3.org/2000/svg">
<rect width="358" height="239" rx="54" fill="#FFBA00" fill-opacity="0.1"/>
<path d="M169.094 106.777L174.899 112.539C176.889 114.521 180.107 114.521 182.097 112.539L186.864 107.806L187.868 106.742L215.76 78.8466C216.815 77.7911 216.071 76 214.583 76H204.781C201.632 76 198.604 77.2546 196.381 79.4783L178.498 97.3715L172.589 91.4619C170.409 89.2815 167.45 88.0528 164.37 88.0528H150.442L169.129 106.742L169.094 106.777Z" fill="#FF0C5D"/>
<path d="M152.312 163C155.401 163 158.36 161.771 160.54 159.591L178.5 141.628L184.331 147.46C186.563 149.693 189.591 150.947 192.749 150.947H206.557L187.87 132.258L187.904 132.223L182.108 126.461C180.109 124.479 176.891 124.479 174.901 126.461L170.134 131.194L169.131 132.258L141.221 160.162C140.174 161.209 140.918 163 142.398 163" fill="#FFC005"/>
<path d="M156.369 119.504L150.503 125.371C148.297 127.577 147.051 130.579 147.051 133.703V147.564L165.739 128.875L165.773 128.91L171.552 123.086C173.534 121.088 173.534 117.86 171.535 115.87L137.82 82.2037C136.774 81.1654 135 81.9009 135 83.3718V93.2269C135 96.3937 136.229 99.3615 138.469 101.602L156.369 119.504Z" fill="#221ECA"/>
<path d="M218.573 137.441L200.725 119.504L206.652 113.552C208.797 111.397 210 108.473 210 105.436V91.4272L191.391 110.125L191.356 110.091L185.663 115.853C183.699 117.834 183.691 121.027 185.637 123.026L191.365 128.91L191.399 128.875L219.24 156.848C220.26 157.869 221.999 157.151 221.999 155.706V145.73C221.991 142.598 220.779 139.656 218.573 137.441Z" fill="#221ECA"/>
</svg>
