<svg width="56" height="56" viewBox="0 0 56 56" fill="none" xmlns="http://www.w3.org/2000/svg">
<rect width="56" height="56" rx="10" fill="#5BC17F"/>
<g clip-path="url(#clip0_1_229)">
<path d="M22.6907 21.4698L21.6398 19.6497L20.5877 19.5715L20.1999 20.4811L21.2515 22.3025C22.0069 22.4411 22.5682 22.1482 22.6907 21.4698Z" fill="#B9C1CB"/>
<path d="M33.3097 21.4698L34.3606 19.6497L35.4127 19.5715L35.8005 20.4811L34.7488 22.3025C33.9934 22.4411 33.4322 22.1482 33.3097 21.4698Z" fill="#B9C1CB"/>
<path d="M28.8546 18.6313C30.1735 18.2534 31.0946 17.0301 31.0946 15.6565C31.0946 13.9503 29.7065 12.5624 28.0004 12.5624C26.2943 12.5624 24.9062 13.9504 24.9062 15.6565C24.9062 17.0301 25.8273 18.2534 27.1462 18.6313L27.28 19.6629C25.3325 19.3147 23.9302 17.5999 23.9302 15.6564C23.9302 13.4121 25.7561 11.5862 28.0004 11.5862C30.2447 11.5862 32.0706 13.4121 32.0706 15.6564C32.0706 17.5971 30.6725 19.3097 28.7295 19.6614L28.8546 18.6313Z" fill="#DAE4EA"/>
<path d="M28 20.5108C28.3329 20.5108 28.6626 20.5264 28.9886 20.5569V16.494H27.0114V20.5569C27.3374 20.5264 27.6671 20.5108 28 20.5108Z" fill="#B9C1CB"/>
<path d="M28 44.4137C34.6743 44.4137 40.0849 39.0031 40.0849 32.3288C40.0849 25.6545 34.6743 20.2439 28 20.2439C21.3257 20.2439 15.9151 25.6545 15.9151 32.3288C15.9151 39.0031 21.3257 44.4137 28 44.4137Z" fill="#DAE4EA"/>
<path d="M29.4649 14.5457H26.5356C26.3902 14.5457 26.2725 14.6634 26.2725 14.8088V16.5039C26.2725 16.6492 26.3902 16.767 26.5356 16.767H29.4649C29.6102 16.767 29.728 16.6492 29.728 16.5039V14.8088C29.728 14.6635 29.6102 14.5457 29.4649 14.5457Z" fill="#DAE4EA"/>
<path d="M21.7892 19.5632L20.0497 20.5675C19.9842 20.6053 19.9006 20.5829 19.8628 20.5175L18.563 18.2661C18.5252 18.2007 18.5476 18.117 18.613 18.0792L20.3526 17.0749C20.418 17.0372 20.5017 17.0595 20.5395 17.125L21.8393 19.3763C21.8771 19.4417 21.8547 19.5254 21.7892 19.5632Z" fill="#DAE4EA"/>
<path d="M34.2107 19.5632L35.9503 20.5675C36.0157 20.6053 36.0994 20.5829 36.1372 20.5175L37.437 18.2661C37.4748 18.2007 37.4524 18.117 37.3869 18.0792L35.6474 17.0749C35.5819 17.0372 35.4982 17.0595 35.4605 17.125L34.1607 19.3763C34.1228 19.4417 34.1453 19.5254 34.2107 19.5632Z" fill="#DAE4EA"/>
<path d="M27.9998 42.2168C33.4607 42.2168 37.8877 37.7899 37.8877 32.329C37.8877 26.8681 33.4607 22.4412 27.9998 22.4412C22.5389 22.4412 18.112 26.8681 18.112 32.329C18.112 37.7899 22.5389 42.2168 27.9998 42.2168Z" fill="#F6F9F9"/>
<path d="M36.2608 32.3289C36.2608 27.7971 32.5928 24.1059 28.0697 24.0681C28.0312 24.0678 27.9996 24.0993 27.9996 24.1377V32.3289H19.8085C19.7701 32.3289 19.7386 32.3605 19.739 32.399C19.7767 36.922 23.4679 40.5901 27.9998 40.5901C28.0182 40.5901 28.0366 40.59 28.055 40.5899C32.5848 40.5601 36.2608 36.8658 36.2608 32.3289Z" fill="#FFC954"/>
<path d="M30.3246 24.4008C32.3464 25.9081 33.6581 28.3175 33.6581 31.0275C33.6581 35.5643 29.982 39.2586 25.4521 39.2884C25.4338 39.2885 25.4154 39.2886 25.3969 39.2886C24.59 39.2886 23.8099 39.1723 23.0721 38.9556C24.4487 39.9819 26.1545 40.59 27.9997 40.59C28.0182 40.59 28.0366 40.5899 28.0549 40.5898C32.5848 40.56 36.2609 36.8656 36.2609 32.3289C36.2608 28.5806 33.7516 25.4074 30.3246 24.4008Z" fill="#E1A729"/>
</g>
<defs>
<clipPath id="clip0_1_229">
<rect width="32.8276" height="32.8276" fill="white" transform="translate(11.5863 11.5862)"/>
</clipPath>
</defs>
</svg>
