<svg width="56" height="56" viewBox="0 0 56 56" fill="none" xmlns="http://www.w3.org/2000/svg">
<rect width="56" height="56" rx="10" fill="#6B72FF"/>
<path d="M41.3367 21.7247H40.3108V18.6471C40.3108 18.0788 39.8512 17.6212 39.2849 17.6212H14.6643C12.9675 17.6212 11.5867 19.0021 11.5867 20.6988V39.1644C11.5867 40.8611 12.9675 42.2419 14.6643 42.2419H41.3367C41.9029 42.2419 42.3625 41.7824 42.3625 41.2161V22.7506C42.3625 22.1822 41.9029 21.7247 41.3367 21.7247Z" fill="#FA855C"/>
<path d="M43.388 34.0348H37.2328C35.534 34.0348 34.1552 32.6561 34.1552 30.9572C34.1552 29.2563 35.534 27.8796 37.2328 27.8796H43.388C43.9542 27.8796 44.4138 28.3392 44.4138 28.9055V33.0089C44.4138 33.5752 43.9542 34.0348 43.388 34.0348Z" fill="#FFD6C8"/>
<path d="M37.8671 21.7246L34.0468 14.0839C33.7924 13.5772 33.1768 13.374 32.6701 13.6244L16.4738 21.7246H37.8671Z" fill="#F8FEFE"/>
<path d="M13.6387 21.7247H33.764L29.9437 14.084C29.6893 13.5773 29.0738 13.3741 28.567 13.6265L13.6387 21.0907V21.7247Z" fill="#E6EAE8"/>
</svg>
