<svg width="56" height="56" viewBox="0 0 56 56" fill="none" xmlns="http://www.w3.org/2000/svg">
<rect width="56" height="56" rx="10" fill="#FE6292"/>
<g clip-path="url(#clip0_1_218)">
<path d="M31.1093 29.6632C35.6054 33.6967 38.2547 37.5764 38.5765 43.2443H17.4243C17.7461 37.5765 20.3953 33.6967 24.8915 29.6632L26.7468 27.9988L24.8915 26.3382C20.3953 22.3046 17.7461 18.4249 17.4243 12.757H38.5765C38.2547 18.4249 35.6054 22.3047 31.1093 26.3382L29.254 27.9988L31.1093 29.6632Z" fill="#F6F9F9"/>
<path d="M17.2211 13.9428H38.78C39.5055 13.9428 40.0935 13.4152 40.0935 12.7645C40.0935 12.1137 39.5055 11.5862 38.78 11.5862H17.2211C16.4956 11.5862 15.9076 12.1138 15.9076 12.7646C15.9076 13.4153 16.4956 13.9428 17.2211 13.9428Z" fill="#2F4859"/>
<path d="M23.6355 36.4469C20.9325 37.8476 19.2676 40.4353 19.2676 43.2355H36.7327C36.7327 40.4352 35.0677 37.8476 32.3647 36.4469L28.7433 34.5703C28.7433 30.0218 28.7433 28.8834 28.7433 24.3349L31.3034 23.0083C33.0548 22.1008 34.2303 20.5348 34.5322 18.773C34.6133 18.3001 34.2116 17.8706 33.6782 17.8706H22.3221C21.7887 17.8706 21.387 18.3 21.4681 18.773C21.7701 20.5347 22.9457 22.1008 24.697 23.0083L27.4346 24.427C27.4346 28.8936 27.4346 30.0115 27.4346 34.4783L23.6355 36.4469Z" fill="#F7BE56"/>
<path d="M38.78 42.0573H17.2211C16.4956 42.0573 15.9076 42.5848 15.9076 43.2356C15.9076 43.8862 16.4956 44.4139 17.2211 44.4139H38.78C39.5055 44.4139 40.0935 43.8863 40.0935 43.2356C40.0935 42.5849 39.5055 42.0573 38.78 42.0573Z" fill="#2F4859"/>
</g>
<defs>
<clipPath id="clip0_1_218">
<rect width="32.8276" height="32.8276" fill="white" transform="translate(11.5863 11.5862)"/>
</clipPath>
</defs>
</svg>
